<?xml version="1.0" standalone="no"?>
<!DOCTYPE svg PUBLIC "-//W3C//DTD SVG 1.1//EN" "http://www.w3.org/Graphics/SVG/1.1/DTD/svg11.dtd" >
<svg xmlns="http://www.w3.org/2000/svg">
<metadata>Generated by IcoMoon</metadata>
<defs>
<font id="icon" horiz-adv-x="1024">
<font-face units-per-em="1024" ascent="960" descent="-64" />
<missing-glyph horiz-adv-x="1024" />
<glyph unicode="&#x20;" horiz-adv-x="512" d="" />
<glyph unicode="&#xe002;" glyph-name="warning" d="M554 340.667v172h-84v-172h84zM554 170.667v86h-84v-86h84zM42 42.667l470 810 470-810h-940z" />
<glyph unicode="&#xe037;" glyph-name="play_arrow" d="M342 724.667l468-298-468-298v596z" />
<glyph unicode="&#xe038;" glyph-name="play_circle_filled" d="M426 234.667l256 192-256 192v-384zM512 852.667c236 0 426-190 426-426s-190-426-426-426-426 190-426 426 190 426 426 426z" />
<glyph unicode="&#xe039;" glyph-name="play_circle_outline" d="M512 84.667c188 0 342 154 342 342s-154 342-342 342-342-154-342-342 154-342 342-342zM512 852.667c236 0 426-190 426-426s-190-426-426-426-426 190-426 426 190 426 426 426zM426 234.667v384l256-192z" />
<glyph unicode="&#xe047;" glyph-name="stop" d="M256 682.667h512v-512h-512v512z" />
<glyph unicode="&#xe04b;" glyph-name="videocam" d="M726 490.667l170 170v-468l-170 170v-150c0-24-20-42-44-42h-512c-24 0-42 18-42 42v428c0 24 18 42 42 42h512c24 0 44-18 44-42v-150z" />
<glyph unicode="&#xe061;" glyph-name="fiber_manual_record" d="M170 426.667c0 188 154 342 342 342s342-154 342-342-154-342-342-342-342 154-342 342z" />
<glyph unicode="&#xe0b7;" glyph-name="chat" d="M768 596.667v86h-512v-86h512zM598 340.667v86h-342v-86h342zM256 554.667v-86h512v86h-512zM854 852.667c46 0 84-38 84-84v-512c0-46-38-86-84-86h-598l-170-170v768c0 46 38 84 84 84h684z" />
<glyph unicode="&#xe0ca;" glyph-name="chat_bubble" d="M854 852.667c46 0 84-38 84-84v-512c0-46-38-86-84-86h-598l-170-170v768c0 46 38 84 84 84h684z" />
<glyph unicode="&#xe0cb;" glyph-name="chat_bubble_outline" d="M854 256.667v512h-684v-598l86 86h598zM854 852.667c46 0 84-38 84-84v-512c0-46-38-86-84-86h-598l-170-170v768c0 46 38 84 84 84h684z" />
<glyph unicode="&#xe0cd;" glyph-name="phone" d="M282 478.667c62-120 162-220 282-282l94 94c12 12 30 16 44 10 48-16 100-24 152-24 24 0 42-18 42-42v-150c0-24-18-42-42-42-400 0-726 326-726 726 0 24 18 42 42 42h150c24 0 42-18 42-42 0-54 8-104 24-152 4-14 2-32-10-44z" />
<glyph unicode="&#xe0e0;" glyph-name="import_contacts" d="M896 148.667v492c-46 14-98 20-150 20-72 0-176-28-234-64v-490c58 36 162 64 234 64 52 0 104-8 150-22zM746 746.667c88.409 0 181.498-22.075 236-64v-622c0-10-12-22-22-22-4 0-6 0-10 2-60 32-134 44-204 44-72 0-176-28-234-64-62 46-150 64-234 64-62 0-146-18-204-46-4 0-6-2-10-2-10 0-22 10-22 20v626c62 46 152 64 236 64s172-18 234-64c62 46 150 64 234 64z" />
<glyph unicode="&#xe0e1;" glyph-name="mail_outline" d="M512 468.667l342 214h-684zM854 170.667v426l-342-212-342 212v-426h684zM854 768.667c46 0 84-40 84-86v-512c0-46-38-86-84-86h-684c-46 0-84 40-84 86v512c0 46 38 86 84 86h684z" />
<glyph unicode="&#xe145;" glyph-name="add" d="M810 384.667h-256v-256h-84v256h-256v84h256v256h84v-256h256v-84z" />
<glyph unicode="&#xe151;" glyph-name="drafts" d="M512 384.667l352 220-352 206-352-206zM938 596.667v-426c0-46-38-86-84-86h-684c-46 0-84 40-84 86v426c0 30 16 60 40 74l386 226 386-226c24-14 40-44 40-74z" />
<glyph unicode="&#xe153;" glyph-name="flag" d="M614 682.667h240v-426h-300l-16 84h-240v-298h-84v726h384z" />
<glyph unicode="&#xe157;" glyph-name="link" d="M726 640.667c118 0 212-96 212-214s-94-214-212-214h-172v82h172c72 0 132 60 132 132s-60 132-132 132h-172v82h172zM342 384.667v84h340v-84h-340zM166 426.667c0-72 60-132 132-132h172v-82h-172c-118 0-212 96-212 214s94 214 212 214h172v-82h-172c-72 0-132-60-132-132z" />
<glyph unicode="&#xe159;" glyph-name="markunread" d="M854 596.667v86l-342-214-342 214v-86l342-212zM854 768.667c46 0 84-40 84-86v-512c0-46-38-86-84-86h-684c-46 0-84 40-84 86v512c0 46 38 86 84 86h684z" />
<glyph unicode="&#xe244;" glyph-name="format_quote" d="M598 212.667l84 172h-128v256h256v-256l-84-172h-128zM256 212.667l86 172h-128v256h256v-256l-86-172h-128z" />
<glyph unicode="&#xe24d;" glyph-name="insert_drive_file" d="M554 554.667h236l-236 234v-234zM256 852.667h342l256-256v-512c0-46-40-84-86-84h-512c-46 0-86 38-86 84l2 684c0 46 38 84 84 84z" />
<glyph unicode="&#xe2bf;" glyph-name="cloud_done" d="M426 212.667l282 282-60 60-222-220-88 88-60-60zM826 510.667c110-8 198-100 198-212 0-118-96-214-214-214h-554c-142 0-256 114-256 256 0 132 100 240 228 254 54 102 160 174 284 174 156 0 284-110 314-258z" />
<glyph unicode="&#xe2c0;" glyph-name="cloud_download" d="M726 384.667h-128v170h-172v-170h-128l214-214zM826 510.667c110-8 198-100 198-212 0-118-96-214-214-214h-554c-142 0-256 114-256 256 0 132 100 240 228 254 54 102 160 174 284 174 156 0 284-110 314-258z" />
<glyph unicode="&#xe2c2;" glyph-name="cloud_queue" d="M810 170.667c70 0 128 58 128 128s-58 128-128 128h-64v22c0 130-104 234-234 234-108 0-198-72-226-170h-30c-94 0-170-78-170-172s76-170 170-170h554zM826 510.667c110-8 198-100 198-212 0-118-96-214-214-214h-554c-142 0-256 114-256 256 0 132 100 240 228 254 54 102 160 174 284 174 156 0 284-110 314-258z" />
<glyph unicode="&#xe30b;" glyph-name="desktop_mac" d="M896 340.667v428h-768v-428h768zM896 852.667c46 0 86-38 86-84v-512c0-46-40-86-86-86h-298l84-128v-42h-340v42l84 128h-298c-46 0-86 40-86 86v512c0 46 40 84 86 84h768z" />
<glyph unicode="&#xe30c;" glyph-name="desktop_windows" d="M896 256.667v512h-768v-512h768zM896 852.667c46 0 86-38 86-84v-512c0-46-40-86-86-86h-298v-86h84v-84h-340v84h84v86h-298c-46 0-86 40-86 86v512c0 46 40 84 86 84h768z" />
<glyph unicode="&#xe311;" glyph-name="headset_mic" d="M512 896.667c212 0 384-172 384-384v-428c0-70-58-128-128-128h-256v86h298v42h-170v342h170v86c0 166-132 298-298 298s-298-132-298-298v-86h170v-342h-128c-70 0-128 58-128 128v300c0 212 172 384 384 384z" />
<glyph unicode="&#xe313;" glyph-name="keyboard_arrow_down" d="M316 604.667l196-196 196 196 60-60-256-256-256 256z" />
<glyph unicode="&#xe314;" glyph-name="keyboard_arrow_left" d="M658 252.667l-60-60-256 256 256 256 60-60-196-196z" />
<glyph unicode="&#xe315;" glyph-name="keyboard_arrow_right" d="M366 240.667l196 196-196 196 60 60 256-256-256-256z" />
<glyph unicode="&#xe316;" glyph-name="keyboard_arrow_up" d="M316 280.667l-60 60 256 256 256-256-60-60-196 196z" />
<glyph unicode="&#xe31f;" glyph-name="laptop_chromebook" d="M854 298.667v426h-684v-426h684zM598 170.667v42h-172v-42h172zM938 170.667h86v-86h-1024v86h86v640h852v-640z" />
<glyph unicode="&#xe320;" glyph-name="laptop_mac" d="M512 128.667c24 0 42 18 42 42s-18 42-42 42-42-18-42-42 18-42 42-42zM170 724.667v-468h684v468h-684zM854 170.667h170c0-46-40-86-86-86h-852c-46 0-86 40-86 86h170c-46 0-84 40-84 86v468c0 46 38 86 84 86h684c46 0 84-40 84-86v-468c0-46-38-86-84-86z" />
<glyph unicode="&#xe321;" glyph-name="laptop_windows" d="M170 724.667v-426h684v426h-684zM854 170.667h170v-86h-1024v86h170v42c-46 0-84 40-84 86v426c0 46 38 86 84 86h684c46 0 84-40 84-86v-426c0-46-38-86-84-86v-42z" />
<glyph unicode="&#xe324;" glyph-name="phone_android" d="M736 170.667v598h-448v-598h448zM598 42.667v42h-172v-42h172zM682 896.667c70 0 128-58 128-128v-684c0-70-58-128-128-128h-340c-70 0-128 58-128 128v684c0 70 58 128 128 128h340z" />
<glyph unicode="&#xe325;" glyph-name="phone_iphone" d="M682 170.667v598h-384v-598h384zM490 0.667c36 0 64 28 64 64s-28 64-64 64-64-28-64-64 28-64 64-64zM662 896.667c58 0 106-50 106-108v-724c0-58-48-108-106-108h-342c-58 0-106 50-106 108v724c0 58 48 108 106 108h342z" />
<glyph unicode="&#xe326;" glyph-name="phonelink" d="M938 212.667v300h-170v-300h170zM982 596.667c24 0 42-18 42-42v-426c0-24-18-44-42-44h-256c-24 0-44 20-44 44v426c0 24 20 42 44 42h256zM170 682.667v-470h428v-128h-598v128h86v470c0 46 38 86 84 86h768v-86h-768z" />
<glyph unicode="&#xe32a;" glyph-name="security" d="M512 896.667l384-172v-256c0-236-164-458-384-512-220 54-384 276-384 512v256zM512 426.667v-382c158 50 276 206 298 382h-298zM512 426.667v376l-298-132v-244h298z" />
<glyph unicode="&#xe3b4;" glyph-name="center_focus_strong" d="M810 128.667v170h86v-170c0-46-40-86-86-86h-170v86h170zM810 810.667c46 0 86-40 86-86v-170h-86v170h-170v86h170zM214 724.667v-170h-86v170c0 46 40 86 86 86h170v-86h-170zM214 298.667v-170h170v-86h-170c-46 0-86 40-86 86v170h86zM512 596.667c94 0 170-76 170-170s-76-170-170-170-170 76-170 170 76 170 170 170z" />
<glyph unicode="&#xe410;" glyph-name="photo" d="M362 362.667l-148-192h596l-192 256-148-192zM896 128.667c0-46-40-86-86-86h-596c-46 0-86 40-86 86v596c0 46 40 86 86 86h596c46 0 86-40 86-86v-596z" />
<glyph unicode="&#xe42d;" glyph-name="wb_cloudy" d="M826 510.667c110-8 198-100 198-212 0-118-96-214-214-214h-554c-142 0-256 114-256 256 0 132 100 240 228 254 54 102 160 174 284 174 156 0 284-110 314-258z" />
<glyph unicode="&#xe432;" glyph-name="photo_size_select_actual" d="M214 212.667h596l-192 256-148-192-108 128zM896 810.667c42 0 86-44 86-86v-596c0-42-44-86-86-86h-768c-46 0-86 40-86 86v596c0 42 44 86 86 86h768z" />
<glyph unicode="&#xe546;" glyph-name="local_gas_station" d="M768 512.667c24 0 42 18 42 42s-18 42-42 42-42-18-42-42 18-42 42-42zM512 512.667v212h-256v-212h256zM844 630.667c20-20 30-46 30-76v-406c0-58-48-106-106-106s-106 48-106 106v214h-64v-320h-428v682c0 46 40 86 86 86h256c46 0 86-40 86-86v-298h42c46 0 86-40 86-86v-192c0-24 18-42 42-42s42 18 42 42v308c-14-6-26-8-42-8-58 0-106 48-106 106 0 46 28 84 68 100l-90 90 46 44z" />
<glyph unicode="&#xe54c;" glyph-name="local_mall" d="M512 384.667c118 0 214 94 214 212h-86c0-70-58-128-128-128s-128 58-128 128h-86c0-118 96-212 214-212zM512 810.667c-70 0-128-58-128-128h256c0 70-58 128-128 128zM810 682.667c46 0 86-40 86-86v-512c0-46-40-84-86-84h-596c-46 0-86 38-86 84v512c0 46 40 86 86 86h84c0 118 96 214 214 214s214-96 214-214h84z" />
<glyph unicode="&#xe54e;" glyph-name="local_offer" d="M234 640.667c36 0 64 28 64 64s-28 64-64 64-64-28-64-64 28-64 64-64zM914 444.667c16-16 24-36 24-60s-8-44-24-60l-300-300c-16-16-36-24-60-24s-44 8-60 24l-384 384c-16 16-24 36-24 60v300c0 46 38 84 84 84h300c24 0 44-8 60-24z" />
<glyph unicode="&#xe55a;" glyph-name="person_pin" d="M768 256.667v38c0 86-170 132-256 132s-256-46-256-132v-38h512zM512 712.667c-64 0-116-52-116-116s52-114 116-114 116 50 116 114-52 116-116 116zM810 852.667c46 0 86-38 86-84v-598c0-46-40-86-86-86h-170l-128-128-128 128h-170c-48 0-86 40-86 86v598c0 46 38 84 86 84h596z" />
<glyph unicode="&#xe55b;" glyph-name="map" d="M640 128.667v506l-256 90v-506zM874 810.667c12 0 22-10 22-22v-644c0-10-8-18-16-20l-240-82-256 90-228-88-6-2c-12 0-22 10-22 22v644c0 10 8 18 16 20l240 82 256-90 228 88z" />
<glyph unicode="&#xe55c;" glyph-name="my_location" d="M512 128.667c166 0 298 132 298 298s-132 298-298 298-298-132-298-298 132-298 298-298zM894 468.667h88v-84h-88c-20-178-162-320-340-340v-88h-84v88c-178 20-320 162-340 340h-88v84h88c20 178 162 320 340 340v88h84v-88c178-20 320-162 340-340zM512 596.667c94 0 170-76 170-170s-76-170-170-170-170 76-170 170 76 170 170 170z" />
<glyph unicode="&#xe569;" glyph-name="near_me" d="M896 810.667l-322-768h-42l-112 292-292 112v42z" />
<glyph unicode="&#xe5c3;" glyph-name="apps" d="M682 84.667v172h172v-172h-172zM682 340.667v172h172v-172h-172zM426 596.667v172h172v-172h-172zM682 768.667h172v-172h-172v172zM426 340.667v172h172v-172h-172zM170 340.667v172h172v-172h-172zM170 84.667v172h172v-172h-172zM426 84.667v172h172v-172h-172zM170 596.667v172h172v-172h-172z" />
<glyph unicode="&#xe5c5;" glyph-name="arrow_drop_down" d="M298 512.667h428l-214-214z" />
<glyph unicode="&#xe5c7;" glyph-name="arrow_drop_up" d="M298 340.667l214 214 214-214h-428z" />
<glyph unicode="&#xe5ca;" glyph-name="check" d="M384 248.667l452 452 60-60-512-512-238 238 60 60z" />
<glyph unicode="&#xe5cd;" glyph-name="close" d="M810 664.667l-238-238 238-238-60-60-238 238-238-238-60 60 238 238-238 238 60 60 238-238 238 238z" />
<glyph unicode="&#xe5d2;" glyph-name="menu" d="M128 682.667h768v-86h-768v86zM128 384.667v84h768v-84h-768zM128 170.667v86h768v-86h-768z" />
<glyph unicode="&#xe7fb;" glyph-name="people" d="M682 384.667c100 0 300-50 300-150v-106h-256v106c0 64-34 112-84 148 14 2 28 2 40 2zM342 384.667c100 0 298-50 298-150v-106h-598v106c0 100 200 150 300 150zM342 468.667c-70 0-128 58-128 128s58 128 128 128 126-58 126-128-56-128-126-128zM682 468.667c-70 0-128 58-128 128s58 128 128 128 128-58 128-128-58-128-128-128z" />
<glyph unicode="&#xe7fc;" glyph-name="people_outline" d="M704 660.667c-46 0-86-38-86-84s40-86 86-86 86 40 86 86-40 84-86 84zM704 426.667c-82 0-150 68-150 150s68 148 150 148 150-66 150-148-68-150-150-150zM320 660.667c-46 0-86-38-86-84s40-86 86-86 86 40 86 86-40 84-86 84zM320 426.667c-82 0-150 68-150 150s68 148 150 148 150-66 150-148-68-150-150-150zM918 192.667v52c0 24-110 76-214 76-46 0-90-12-128-24 14-16 22-32 22-52v-52h320zM534 192.667v52c0 24-110 76-214 76s-214-52-214-76v-52h428zM704 384.667c92 0 278-48 278-140v-116h-940v116c0 92 186 140 278 140 52 0 130-16 192-44 62 28 140 44 192 44z" />
<glyph unicode="&#xe7fd;" glyph-name="person" d="M512 340.667c114 0 342-56 342-170v-86h-684v86c0 114 228 170 342 170zM512 426.667c-94 0-170 76-170 170s76 172 170 172 170-78 170-172-76-170-170-170z" />
<glyph unicode="&#xe7ff;" glyph-name="person_outline" d="M512 384.667c114 0 342-58 342-172v-128h-684v128c0 114 228 172 342 172zM512 768.667c94 0 170-78 170-172s-76-170-170-170-170 76-170 170 76 172 170 172zM512 302.667c-126 0-260-62-260-90v-46h520v46c0 28-134 90-260 90zM512 686.667c-50 0-90-40-90-90s40-88 90-88 90 38 90 88-40 90-90 90z" />
<glyph unicode="&#xe80d;" glyph-name="share" d="M768 252.667c68 0 124-56 124-124s-56-126-124-126-124 58-124 126c0 10 0 20 2 28l-302 176c-24-22-54-34-88-34-70 0-128 58-128 128s58 128 128 128c34 0 64-12 88-34l300 174c-2 10-4 20-4 30 0 70 58 128 128 128s128-58 128-128-58-128-128-128c-34 0-64 14-88 36l-300-176c2-10 4-20 4-30s-2-20-4-30l304-176c22 20 52 32 84 32z" />
<glyph unicode="&#xe834;" glyph-name="check_box" d="M426 212.667l384 384-60 62-324-324-152 152-60-60zM810 810.667c48 0 86-40 86-86v-596c0-46-38-86-86-86h-596c-48 0-86 40-86 86v596c0 46 38 86 86 86h596z" />
<glyph unicode="&#xe836;" glyph-name="radio_button_unchecked" d="M512 84.667c188 0 342 154 342 342s-154 342-342 342-342-154-342-342 154-342 342-342zM512 852.667c236 0 426-190 426-426s-190-426-426-426-426 190-426 426 190 426 426 426z" />
<glyph unicode="&#xe838;" glyph-name="star" d="M512 202.667l-264-160 70 300-232 202 306 26 120 282 120-282 306-26-232-202 70-300z" />
<glyph unicode="&#xe83a;" glyph-name="star_border" d="M512 280.667l160-96-42 182 142 124-188 16-72 172-72-172-188-16 142-124-42-182zM938 544.667l-232-202 70-300-264 160-264-160 70 300-232 202 306 26 120 282 120-282z" />
<glyph unicode="&#xe84f;" glyph-name="account_balance" d="M490 896.667l406-214v-86h-810v86zM682 512.667h128v-300h-128v300zM86 0.667v128h810v-128h-810zM426 512.667h128v-300h-128v300zM170 512.667h128v-300h-128v300z" />
<glyph unicode="&#xe851;" glyph-name="account_box" d="M256 212.667v-42h512v42c0 86-170 132-256 132s-256-46-256-132zM640 554.667c0 70-58 128-128 128s-128-58-128-128 58-128 128-128 128 58 128 128zM128 724.667c0 46 38 86 86 86h596c46 0 86-40 86-86v-596c0-46-40-86-86-86h-596c-48 0-86 40-86 86v596z" />
<glyph unicode="&#xe853;" glyph-name="account_circle" d="M512 118.667c106 0 200 56 256 138-2 84-172 132-256 132-86 0-254-48-256-132 56-82 150-138 256-138zM512 724.667c-70 0-128-58-128-128s58-128 128-128 128 58 128 128-58 128-128 128zM512 852.667c236 0 426-190 426-426s-190-426-426-426-426 190-426 426 190 426 426 426z" />
<glyph unicode="&#xe869;" glyph-name="build" d="M968 128.667c18-12 18-42-4-60l-98-98c-18-18-42-18-60 0l-388 388c-98-38-212-18-294 64-86 86-108 214-56 316l188-184 128 128-184 184c102 46 230 30 316-56 82-82 102-196 64-294z" />
<glyph unicode="&#xe86a;" glyph-name="cached" d="M256 426.667h128l-170-170-172 170h128c0 188 154 342 342 342 66 0 130-20 182-54l-62-62c-36 20-76 30-120 30-142 0-256-114-256-256zM810 596.667l172-170h-128c0-188-154-342-342-342-66 0-130 20-182 54l62 62c36-20 76-30 120-30 142 0 256 114 256 256h-128z" />
<glyph unicode="&#xe86c;" glyph-name="check_circle" d="M426 212.667l384 384-60 62-324-324-152 152-60-60zM512 852.667c236 0 426-190 426-426s-190-426-426-426-426 190-426 426 190 426 426 426z" />
<glyph unicode="&#xe873;" glyph-name="description" d="M554 554.667h236l-236 234v-234zM682 340.667v86h-340v-86h340zM682 170.667v86h-340v-86h340zM598 852.667l256-256v-512c0-46-40-84-86-84h-512c-46 0-86 38-86 84l2 684c0 46 38 84 84 84h342z" />
<glyph unicode="&#xe87d;" glyph-name="favorite" d="M512 28.667l-62 56c-220 200-364 330-364 492 0 132 102 234 234 234 74 0 146-36 192-90 46 54 118 90 192 90 132 0 234-102 234-234 0-162-144-294-364-494z" />
<glyph unicode="&#xe87e;" glyph-name="favorite_border" d="M516 146.667c204 184 338 306 338 430 0 86-64 148-150 148-66 0-130-42-152-100h-80c-22 58-86 100-152 100-86 0-150-62-150-148 0-124 134-246 338-430l4-4zM704 810.667c132 0 234-102 234-234 0-162-144-292-364-492l-62-56-62 54c-220 200-364 332-364 494 0 132 102 234 234 234 74 0 146-36 192-90 46 54 118 90 192 90z" />
<glyph unicode="&#xe88a;" glyph-name="home" d="M426 84.667h-212v342h-128l426 384 426-384h-128v-342h-212v256h-172v-256z" />
<glyph unicode="&#xe88e;" glyph-name="info" d="M554 554.667v86h-84v-86h84zM554 212.667v256h-84v-256h84zM512 852.667c236 0 426-190 426-426s-190-426-426-426-426 190-426 426 190 426 426 426z" />
<glyph unicode="&#xe88f;" glyph-name="info_outline" d="M470 554.667v86h84v-86h-84zM512 84.667c188 0 342 154 342 342s-154 342-342 342-342-154-342-342 154-342 342-342zM512 852.667c236 0 426-190 426-426s-190-426-426-426-426 190-426 426 190 426 426 426zM470 212.667v256h84v-256h-84z" />
<glyph unicode="&#xe894;" glyph-name="language" d="M698 340.667h144c6 28 12 56 12 86s-6 58-12 86h-144c4-28 6-56 6-86s-2-58-6-86zM622 104.667c78 26 146 82 186 152h-126c-14-54-34-104-60-152zM612 340.667c4 28 6 56 6 86s-2 58-6 86h-200c-4-28-6-56-6-86s2-58 6-86h200zM512 86.667c36 52 64 108 82 170h-164c18-62 46-118 82-170zM342 596.667c14 54 34 104 60 152-78-26-146-82-186-152h126zM216 256.667c40-70 108-126 186-152-26 48-46 98-60 152h-126zM182 340.667h144c-4 28-6 56-6 86s2 58 6 86h-144c-6-28-12-56-12-86s6-58 12-86zM512 766.667c-36-52-64-108-82-170h164c-18 62-46 118-82 170zM808 596.667c-40 70-108 126-186 152 26-48 46-98 60-152h126zM512 852.667c236 0 426-190 426-426s-190-426-426-426-426 190-426 426 190 426 426 426z" />
<glyph unicode="&#xe897;" glyph-name="lock" d="M644 596.667v86c0 72-60 132-132 132s-132-60-132-132v-86h264zM512 212.667c46 0 86 40 86 86s-40 86-86 86-86-40-86-86 40-86 86-86zM768 596.667c46 0 86-38 86-84v-428c0-46-40-84-86-84h-512c-46 0-86 38-86 84v428c0 46 40 84 86 84h42v86c0 118 96 214 214 214s214-96 214-214v-86h42z" />
<glyph unicode="&#xe898;" glyph-name="lock_open" d="M768 84.667v428h-512v-428h512zM768 596.667c46 0 86-38 86-84v-428c0-46-40-84-86-84h-512c-46 0-86 38-86 84v428c0 46 40 84 86 84h388v86c0 72-60 132-132 132s-132-60-132-132h-82c0 118 96 214 214 214s214-96 214-214v-86h42zM512 212.667c-46 0-86 40-86 86s40 86 86 86 86-40 86-86-40-86-86-86z" />
<glyph unicode="&#xe899;" glyph-name="lock_outline" d="M768 84.667v428h-512v-428h512zM380 682.667v-86h264v86c0 72-60 132-132 132s-132-60-132-132zM768 596.667c46 0 86-38 86-84v-428c0-46-40-84-86-84h-512c-46 0-86 38-86 84v428c0 46 40 84 86 84h42v86c0 118 96 214 214 214s214-96 214-214v-86h42zM512 212.667c-46 0-86 40-86 86s40 86 86 86 86-40 86-86-40-86-86-86z" />
<glyph unicode="&#xe8a1;" glyph-name="payment" d="M854 596.667v86h-684v-86h684zM854 170.667v256h-684v-256h684zM854 768.667c48 0 84-38 84-86v-512c0-48-36-86-84-86h-684c-48 0-84 38-84 86v512c0 48 36 86 84 86h684z" />
<glyph unicode="&#xe8a3;" glyph-name="perm_contact_calendar" d="M768 170.667v42c0 86-170 132-256 132s-256-46-256-132v-42h512zM512 682.667c-70 0-128-58-128-128s58-128 128-128 128 58 128 128-58 128-128 128zM810 810.667c46 0 86-40 86-86v-596c0-46-40-86-86-86h-596c-48 0-86 40-86 86v596c0 46 38 86 86 86h42v86h86v-86h340v86h86v-86h42z" />
<glyph unicode="&#xe8ac;" glyph-name="power_settings_new" d="M760 718.667c82-70 136-176 136-292 0-212-172-384-384-384s-384 172-384 384c0 116 54 222 136 292l60-60c-66-54-110-138-110-232 0-166 132-298 298-298s298 132 298 298c0 94-42 176-110 230zM554 810.667v-426h-84v426h84z" />
<glyph unicode="&#xe8ad;" glyph-name="print" d="M768 810.667v-170h-512v170h512zM810 426.667c24 0 44 18 44 42s-20 44-44 44-42-20-42-44 18-42 42-42zM682 128.667v212h-340v-212h340zM810 596.667c70 0 128-58 128-128v-256h-170v-170h-512v170h-170v256c0 70 58 128 128 128h596z" />
<glyph unicode="&#xe8af;" glyph-name="question_answer" d="M726 426.667c0-24-20-42-44-42h-426l-170-172v598c0 24 18 42 42 42h554c24 0 44-18 44-42v-384zM896 682.667c24 0 42-18 42-42v-640l-170 170h-470c-24 0-42 18-42 42v86h554v384h86z" />
<glyph unicode="&#xe8b4;" glyph-name="room" d="M512 448.667c58 0 106 48 106 106s-48 106-106 106-106-48-106-106 48-106 106-106zM512 852.667c166 0 298-132 298-298 0-224-298-554-298-554s-298 330-298 554c0 166 132 298 298 298z" />
<glyph unicode="&#xe8b8;" glyph-name="settings" d="M512 276.667c82 0 150 68 150 150s-68 150-150 150-150-68-150-150 68-150 150-150zM830 384.667l90-70c8-6 10-18 4-28l-86-148c-6-10-16-12-26-8l-106 42c-22-16-46-32-72-42l-16-112c-2-10-10-18-20-18h-172c-10 0-18 8-20 18l-16 112c-26 10-50 24-72 42l-106-42c-10-4-20-2-26 8l-86 148c-6 10-4 22 4 28l90 70c-2 14-2 28-2 42s0 28 2 42l-90 70c-8 6-10 18-4 28l86 148c6 10 16 12 26 8l106-42c22 16 46 32 72 42l16 112c2 10 10 18 20 18h172c10 0 18-8 20-18l16-112c26-10 50-24 72-42l106 42c10 4 20 2 26-8l86-148c6-10 4-22-4-28l-90-70c2-14 2-28 2-42s0-28-2-42z" />
<glyph unicode="&#xe8cb;" glyph-name="shopping_basket" d="M512 212.667c46 0 86 40 86 86s-40 86-86 86-86-40-86-86 40-86 86-86zM384 554.667h256l-128 188zM734 554.667h204c24 0 44-18 44-42-34.625-138.041-73.705-271.628-110-408-10-36-42-62-82-62h-556c-40 0-72 26-82 62l-108 396c-2 4-2 8-2 12 0 24 20 42 44 42h204l186 280c8 12 22 18 36 18s28-6 36-18z" />
<glyph unicode="&#xe8cc;" glyph-name="shopping_cart" d="M726 170.667c46 0 84-40 84-86s-38-84-84-84-86 38-86 84 40 86 86 86zM42 852.667h140l40-84h632c24 0 42-20 42-44 0-8-2-14-6-20l-152-276c-14-26-42-44-74-44h-318l-38-70-2-6c0-6 4-10 10-10h494v-86h-512c-46 0-84 40-84 86 0 14 4 28 10 40l58 106-154 324h-86v84zM298 170.667c46 0 86-40 86-86s-40-84-86-84-84 38-84 84 38 86 84 86z" />
<glyph unicode="&#xe8e8;" glyph-name="verified_user" d="M426 212.667l342 342-60 60-282-280-110 110-60-60zM512 896.667l384-172v-256c0-236-164-458-384-512-220 54-384 276-384 512v256z" />
<glyph unicode="&#xe8f4;" glyph-name="visibility" d="M512 554.667c70 0 128-58 128-128s-58-128-128-128-128 58-128 128 58 128 128 128zM512 212.667c118 0 214 96 214 214s-96 214-214 214-214-96-214-214 96-214 214-214zM512 746.667c214 0 396-132 470-320-74-188-256-320-470-320s-396 132-470 320c74 188 256 320 470 320z" />
<glyph unicode="&#xe8f9;" glyph-name="work" d="M598 682.667v86h-172v-86h172zM854 682.667c48 0 84-38 84-86v-468c0-48-36-86-84-86h-684c-48 0-84 38-84 86v468c0 48 36 86 84 86h172v86c0 48 36 84 84 84h172c48 0 84-36 84-84v-86h172z" />
<glyph unicode="&#xe900;" glyph-name="amoozesh-sepidar" horiz-adv-x="755" d="M189.363 793.549l-10.898-6.247v-12.643l299.042-172.624v357.965zM211.159 780.98l244.552 141.239v-282.477zM733.029 159.429l-277.319 160.126v-357.961l299.115 172.624v12.643zM477.507-0.629v282.406l244.625-141.238zM743.927 473.365l-288.217 166.376v-357.965l10.898 6.322 10.898 6.247 10.898 6.322 244.625 141.238v-301.368h21.796v326.505zM477.507 319.555v282.481l244.625-141.239zM743.927 473.365l-299.115-172.698 10.898-6.322 10.898-6.247 10.898-6.322 266.493-153.807 10.825 6.247v332.827zM488.405 300.667l244.625 141.238v-282.477zM466.681 633.495l-0.073-0.074-10.898-6.247-10.825-6.322-266.421-153.733v-12.643l10.898-6.247 288.144-166.451v357.965zM211.159 460.796l244.552 141.239v-282.481zM477.507 627.173v0.071l-288.144 166.305-10.898-6.247v-332.827l10.898-6.247 298.97 172.698zM200.261 479.684v282.406l244.552-141.164-122.277-70.695zM200.261 479.684v-0.071l122.275 70.617zM192.955-63.999c-106.566 0.001-192.955 86.39-192.955 192.956s86.389 192.956 192.956 192.956c106.567 0 192.956-86.389 192.956-192.956 0-0.001 0-0.001 0-0.002v0c-0.125-106.517-86.441-192.832-192.946-192.955h-0.012zM192.955 300.118c-94.528-0.001-171.158-76.632-171.158-171.16s76.631-171.16 171.16-171.16c94.529 0 171.159 76.63 171.16 171.158v0c-0.11 94.486-76.676 171.052-171.151 171.162h-0.011zM173.621 51.211l-65.090 65.083 15.41 15.41 49.681-49.673 116.972 116.965 15.41-15.41-132.382-132.375z" />
<glyph unicode="&#xe901;" glyph-name="auotomasion-edari" horiz-adv-x="1142" d="M1141.593 128.482h-1141.593v831.52h1141.593zM27.294 155.776h1087.006v776.933h-1087.006zM570.694 530.467c-79.38 0-141.563 63.96-141.563 145.61v79.553c-0.028 0.956-0.045 2.080-0.045 3.208 0 63.251 51.050 114.579 114.196 115.029h54.786c63.287-0.391 114.44-51.786 114.44-115.128 0-1.093-0.015-2.183-0.046-3.269l0.004 0.16v-79.553c0.026-1.016 0.041-2.212 0.041-3.411 0-78.399-63.445-141.979-141.792-142.199h-0.021zM543.325 846.572c-48.152-0.618-86.948-39.796-86.948-88.036 0-1.022 0.017-2.040 0.052-3.054l-0.004 0.147v-79.553c-0.042-1.155-0.066-2.513-0.066-3.876 0-63.203 51.236-114.44 114.44-114.44s114.44 51.236 114.44 114.44c0 1.363-0.024 2.72-0.071 4.072l0.005-0.196v79.553c0.029 0.838 0.045 1.823 0.045 2.812 0 48.33-38.899 87.574-87.097 88.131h-0.053zM570.797 255.204l-100.876 218.748c-98.155-4.564-176.053-85.066-176.431-183.848v-23.803h-27.294v23.766c0.422 116.829 95.227 211.374 212.115 211.374 0.089 0 0.179 0 0.268 0h8.72l83.498-181.060 83.502 181.059h8.734c0.075 0 0.164 0 0.253 0 116.888 0 211.693-94.545 212.115-211.334v-23.806h-27.294v23.766c-0.377 98.819-78.276 179.321-176.021 183.87l-0.41 0.015zM552.194 359.215l-27.266 1.119 5.905 143.182h79.925l5.914-143.164-27.266-1.119-4.84 116.989h-27.539l-4.831-117.007zM13.656 279.947h1114.282v-27.294h-1114.282v27.294zM306.226-36.709h529.145v-27.294h-529.145v27.294zM649.736 142.138h27.294v-192.494h-27.294v192.494zM464.568 142.138h27.294v-192.494h-27.294v192.494z" />
<glyph unicode="&#xe902;" glyph-name="bastehaye-vije" horiz-adv-x="1009" d="M740.456 573.943l-502.641 239.072 10.87 22.845 491.771-233.902 250.22 119.021 10.87-22.845-261.090-124.191zM243.248 75.001c-134.34 0.002-243.244 108.907-243.244 243.248s108.906 243.248 243.248 243.248 243.248-108.906 243.248-243.248v0c-0.157-134.28-108.971-243.093-243.237-243.248h-0.015zM243.248 536.198c-120.368-0.002-217.945-97.581-217.945-217.949 0-120.37 97.579-217.949 217.949-217.949s217.949 97.579 217.949 217.949v0c-0.143 120.314-97.639 217.808-217.94 217.949h-0.013zM727.817 587.965h25.299v-637.982h-25.299v637.982zM740.456-64.003l-368.803 175.387 10.87 22.845 357.933-170.217 243.010 115.564-0.008 621.974-484.552 230.436-243.010-115.539v-213.225h-25.299v229.205l268.308 127.572 509.851-242.47 0.008-653.935-268.308-127.598zM218.757 221.399l-81.63 81.622 17.886 17.886 63.744-63.727 148.975 148.975 17.886-17.886-166.861-166.87z" />
<glyph unicode="&#xe903;" glyph-name="bekhanid-bedanid" horiz-adv-x="714" d="M609.947 351.097h-333.213v298.626h333.213zM298.626 372.989h289.429v254.841h-289.429zM93.078 143.548h-93.078v816.452h506.175v-212.82h-21.892v190.928h-462.39v-772.667h71.186v-21.892zM713.724-63.998h-540.365v811.433l318.537 207.719 11.958-18.336-282.723-184.365h492.594zM195.251-42.106h496.581v772.666h-496.581zM270.384 269.215h345.912v-21.892h-345.912v21.892zM270.384 165.441h345.912v-21.892h-345.912v21.892zM426.044 61.668h190.252v-21.892h-190.252v21.892z" />
<glyph unicode="&#xe904;" glyph-name="flash" d="M348.314 0.102c-9.933 6.502 161.434 366.592 155.546 382.413-5.939 15.821-187.648 73.523-196.506 101.325-8.909 27.802 358.758 445.798 368.435 437.709 9.626-8.090-160.205-370.586-155.597-382.413 4.659-11.776 190.874-71.885 196.506-101.325 5.683-29.44-358.502-444.211-368.384-437.709z" />
<glyph unicode="&#xe905;" glyph-name="globe" d="M512 952.32c-271.104 0-491.571-220.518-491.571-491.52s220.467-491.52 491.571-491.52c271.002 0 491.52 220.518 491.52 491.52s-220.518 491.52-491.52 491.52zM931.226 460.8c0-95.898-32.563-184.32-86.835-254.976-15.36 11.981-31.693 44.39-16.333 77.978 15.514 33.792 19.558 112.026 15.974 142.49-3.379 30.413-19.2 103.68-62.157 104.397-42.906 0.614-72.346 14.797-97.843 65.69-52.89 105.882 99.277 126.208 46.387 184.781-14.797 16.486-91.29-67.686-102.502 44.493-0.717 8.038 6.912 20.070 17.203 32.563 166.093-55.808 286.106-212.838 286.106-397.414zM454.4 875.878c-10.035-19.558-36.506-27.494-52.582-42.189-35.021-31.693-50.074-27.29-68.915-57.702-18.995-30.413-80.23-74.189-80.23-96.205s30.925-47.923 46.387-42.906c15.462 5.12 56.269 4.813 80.23-3.584 24.013-8.499 200.397-16.998 144.179-166.093-17.818-47.411-95.898-39.424-116.685-117.914-3.123-11.52-13.926-60.723-14.592-76.8-1.28-24.883 17.613-118.682-6.4-118.682-24.115 0-88.986 83.917-88.986 99.123s-16.794 68.506-16.794 114.176c0 45.619-77.722 44.902-77.722 105.574 0 54.682 42.138 81.92 32.666 108.186-9.267 26.112-83.302 26.982-114.176 30.208 53.914 139.827 180.736 243.61 333.619 264.806zM380.109 62.976c25.19 13.312 27.75 30.515 50.586 31.386 26.112 1.178 47.36 10.189 76.8 16.691 26.112 5.683 72.858 32.205 113.971 35.584 34.714 2.816 103.168-1.792 121.6-35.277-66.304-44.083-145.818-69.786-231.117-69.786-46.029 0-90.368 7.629-131.84 21.402z" />
<glyph unicode="&#xe906;" glyph-name="pie-chart" d="M563.2 923.75v-462.797c0-28.365-22.989-51.354-51.354-51.354h-462.797c25.498-233.216 222.976-414.72 462.95-414.72 257.331 0 465.92 208.589 465.92 465.92 0 240.026-181.504 437.453-414.72 462.95zM460.8 923.75c-216.371-23.654-388.096-195.379-411.75-411.75h411.75v411.75z" />
<glyph unicode="&#xe907;" glyph-name="dorehaye-amoozeshi" horiz-adv-x="1177" d="M1176.638 85.252h-883.277v201.293h19.24v-182.053h844.798v604.365h-501.15v19.24h520.39v-642.845zM302.99 200.778h864.025v-19.24h-864.025v19.24zM529.849-44.761h410.307v-19.24h-410.307v19.24zM797.173 94.881h19.24v-149.261h-19.24v149.261zM653.592 94.881h19.24v-149.261h-19.24v149.261zM400.203 415.859h-206.965v69.39c-51.558 33.775-85.141 91.275-85.141 156.62 0 0.752 0.004 1.504 0.013 2.254l-0.001-0.114c0.017 104.184 84.478 188.636 188.665 188.636 104.197 0 188.665-84.468 188.665-188.665 0-65.704-33.587-123.564-84.528-157.346l-0.698-0.435zM212.478 435.099h168.485l0.009 61.753 4.572 2.818c48.703 30.329 80.636 83.581 80.636 144.291 0 93.566-75.85 169.416-169.416 169.416-93.549 0-169.389-75.823-169.416-169.366v-0.002c-0.009-0.629-0.013-1.371-0.013-2.114 0-60.319 31.906-113.186 79.761-142.646l0.725-0.415 4.656-2.806zM336.394 276.925h-79.146l-63.696 59.169v121.031h19.24v-112.649l52.018-48.311h64.049l52.21 48.324v112.636h19.24v-121.044l-63.914-59.156zM287.207 959.999h19.24v-71.595h-19.24v71.595zM428.241 848.831l42.092 57.917 15.563-11.311-42.092-57.917-15.563 11.311zM522.058 728.098h71.598v-19.24h-71.598v19.24zM107.761 895.442l15.565 11.309 42.084-57.923-15.565-11.309-42.084 57.923zM0.001 728.098h71.595v-19.24h-71.595v19.24zM203.174 363.554h187.515v-19.24h-187.515v19.24z" />
<glyph unicode="&#xe908;" glyph-name="dorehaye-amoozeshi2" horiz-adv-x="1308" d="M1130.488 604.437c-0.001 0-0.003 0-0.005 0-98.186 0-177.781 79.595-177.781 177.781s79.595 177.781 177.781 177.781c98.185 0 177.781-79.595 177.781-177.78v0c-0.114-98.139-79.638-177.665-177.765-177.783h-0.011zM1130.488 939.918c-0.001 0-0.003 0-0.005 0-87.095 0-157.699-70.604-157.699-157.699s70.604-157.699 157.699-157.699c87.095 0 157.699 70.604 157.699 157.699 0 0.001 0 0.001 0 0.002v0c-0.103 87.052-70.643 157.593-157.685 157.698h-0.010zM1112.669 710.582l-59.965 59.971 14.198 14.198 45.767-45.767 107.767 107.773 14.205-14.205-121.971-121.971zM307.643 293.202c-79.027 0-140.927 63.717-140.927 145.058v81.407c0 65.636 49.604 117.053 112.922 117.053h56.016c63.436 0 113.125-51.418 113.125-117.053v-81.407c0-81.341-61.991-145.058-141.136-145.058zM279.638 616.639c-52.061 0-92.84-42.596-92.84-96.971v-81.407c0-70.081 53.081-124.976 120.845-124.976 67.881 0 121.054 54.895 121.054 124.976v81.407c0 54.375-40.87 96.971-93.043 96.971zM615.495-64.001h-20.082v107.3c-0.395 104.143-83.224 188.812-186.607 192.163l-0.308 0.008-100.75-218.473-100.756 218.473c-103.689-3.362-186.515-88.030-186.909-192.133v-107.338h-20.082v107.3c0.425 117.373 95.672 212.358 213.104 212.358 0.094 0 0.188 0 0.282 0h6.411l87.95-190.704 87.944 190.704h6.426c0.079 0 0.174 0 0.268 0 117.433 0 212.682-94.984 213.11-212.317v-0.041zM284.883 114.207l-20.069 0.83 5.891 142.743h74.25l5.897-142.723-20.069-0.83-5.101 123.471h-35.706l-5.094-123.491zM826.388 293.202c-79.027 0-140.927 63.717-140.927 145.058v81.407c0 65.636 49.604 117.053 112.922 117.053h56.010c63.436 0 113.131-51.418 113.131-117.053v-81.407c0-81.341-61.991-145.058-141.136-145.058zM798.383 616.639c-52.061 0-92.84-42.596-92.84-96.971v-81.407c0-70.081 53.081-124.976 120.845-124.976 67.881 0 121.054 54.895 121.054 124.976v81.407c0 54.375-40.87 96.971-93.049 96.971zM1134.24-64.001h-20.082v107.3c-0.395 104.143-83.224 188.812-186.607 192.163l-0.308 0.008-100.75-218.473-100.756 218.473c-61.809-2.212-116.006-32.951-150.085-79.377l-0.38-0.542-16.251 11.793c39.386 53.691 102.199 88.19 173.076 88.313h6.446l87.95-190.704 87.944 190.704h6.426c0.079 0 0.174 0 0.268 0 117.433 0 212.682-94.984 213.11-212.317v-0.041zM803.627 114.207l-20.069 0.83 5.897 142.743h74.243l5.897-142.723-20.069-0.83-5.094 123.471h-35.706l-5.101-123.491z" />
<glyph unicode="&#xe909;" glyph-name="call2" d="M384.448-50.006c-23.078 0-116.672 7.936-240.342 124.749l-16.106 15.178 190.109 236.624 137.251-76.861 200.298 346.97-135.162 80.406 109.827 282.941 21.235-6.342c184.483-55.126 228.906-146.624 230.72-150.499l1.952-6.467c1.376-8.906 31.734-221.312-124.282-491.562v0c-156.032-270.227-355.149-350.134-363.549-353.414l-6.595-1.533c-0.496-0.032-2.31-0.189-5.357-0.189zM193.402 94.72c100.72-89.002 173.392-96.25 189.235-96.688 27.312 12.125 200.032 96.032 335.75 331.094 136.358 236.218 122.109 426.938 118.89 456.342-8 12.998-50.438 72.595-178.374 115.501l-78.97-203.411 140.97-83.907-247.68-428.97-143.133 80.125z" />
<glyph unicode="&#xe90a;" glyph-name="dorehaye-barnamerizi" horiz-adv-x="1033" d="M1032.464 377.036h-678.144v23.69h654.453v144.732h-588.349v23.69h612.040v-192.113zM420.426 267.438h612.216v-23.69h-612.216v23.69zM420.426 141.729h612.216v-23.69h-612.216v23.69zM194.687 377.036h-194.687v192.113h194.687v-23.69h-170.997v-144.732h170.997v-23.69zM191.011 761.256h163.311v-23.69h-163.311v23.69zM274.497-63.996l-91.669 139.674v792.655c0 50.627 41.042 91.669 91.669 91.669s91.669-41.042 91.669-91.669v-792.655zM206.519 82.758l67.979-103.584 67.979 103.584v785.575c0 37.544-30.435 67.979-67.979 67.979s-67.979-30.435-67.979-67.979v0z" />
<glyph unicode="&#xe90b;" glyph-name="dorehaye-electronic" horiz-adv-x="1142" d="M305.729-39.126h530.428v-24.873h-530.428v24.873zM1052.699 600.962h-963.52v269.858h963.52zM114.052 625.834h913.775v220.112h-913.775zM1141.882 128.954h-1141.882v831.045h1141.882zM24.873 153.826h1092.137v781.299h-1092.137zM12.448 278.294h1116.99v-24.873h-1116.99v24.873zM651.318 141.394h24.873v-192.957h-24.873v192.957zM465.697 141.394h24.873v-192.957h-24.873v192.957zM417.963 342.601h-328.784v206.555h328.784zM114.052 367.474h279.039v156.81h-279.039zM474.817 549.156h565.446v-24.873h-565.446v24.873zM478.133 453.694h562.13v-24.873h-562.13v24.873zM663.754 367.474h376.509v-24.873h-376.509v24.873z" />
<glyph unicode="&#xe90c;" glyph-name="dorehaye-systemi" horiz-adv-x="1512" d="M1512.092 155.621h-747.398v21.521h725.877v761.337h-1135.337v-136.888h-21.521v158.409h1178.379v-804.379zM966.925 860.36h444.779v-21.521h-444.779v21.521zM969.534 785.271h442.17v-21.521h-442.17v21.521zM1115.54 717.45h296.163v-21.521h-296.163v21.521zM667.43 73.762h21.521v-124.412h-21.521v124.412zM344.358 350.251c-88.305 0-157.478 71.208-157.478 162.112v91.251c0 73.296 55.382 130.713 126.082 130.713h62.791c70.833 0 126.317-57.418 126.317-130.713v-91.251c0-90.904-69.274-162.112-157.713-162.112zM312.963 712.805c-58.633 0-104.561-47.963-104.561-109.192v-91.251c0-78.837 59.719-140.591 135.957-140.591 76.368 0 136.192 61.754 136.192 140.591v91.251c0 61.229-46.034 109.192-104.796 109.192zM379.050-51.095l-14.088 340.883h-20.488v21.521h41.14l10.718-259.402 44.871 259.402h9.058c0.089 0 0.194 0 0.3 0 131.363 0 237.911-106.251 238.39-237.502v-0.046h-21.521c-0.443 116.352-92.467 211.067-207.71 215.827l-0.432 0.014-58.885-340.421-0.844 0.147zM0 73.762h21.521v-137.761h-21.521v137.761zM309.901-51.095l-20.509 0.424-0.844-0.147-0.158 0.911-58.731 339.51c-115.674-4.774-207.697-99.49-208.138-215.798v-0.043h-21.521c0.478 131.296 107.025 237.548 238.387 237.548 0.105 0 0.21 0 0.315 0h9.042l44.874-259.405 10.718 259.405h41.136v-21.521h-20.484z" />
<glyph unicode="&#xe90d;" glyph-name="login" d="M515.443 447.459c-117.201 0.382-212.064 95.481-212.064 212.735 0 1.829 0.023 3.652 0.069 5.47l-0.005-0.269v116.909c-0.041 1.414-0.065 3.077-0.065 4.746 0 95.122 76.79 172.308 171.761 172.95h80.515c95.179-0.546 172.125-77.83 172.125-173.085 0-1.618-0.022-3.231-0.066-4.838l0.005 0.237v-116.918c0.038-1.508 0.060-3.285 0.060-5.066 0-117.377-95.001-212.565-212.306-212.87h-0.029zM475.2 912c-68.586-0.931-123.828-56.748-123.828-125.468 0-1.487 0.026-2.968 0.077-4.443l-0.006 0.214v-116.909c-0.063-1.702-0.099-3.7-0.099-5.707 0-90.707 73.533-164.24 164.24-164.24s164.24 73.533 164.24 164.24c0 2.007-0.036 4.006-0.107 5.996l0.008-0.288v116.909c0.042 1.217 0.066 2.647 0.066 4.082 0 68.855-55.396 124.771-124.051 125.613l-0.079 0.001zM967.178-56h-48v154.115c-0.544 142.179-111.905 258.175-252.168 266.125l-0.705 0.032-150.72-326.813-150.72 326.813c-140.963-7.991-252.317-123.982-252.864-266.103v-154.169h-48v154.115c0.626 173.861 141.711 314.56 315.659 314.56 0.131 0 0.263 0 0.394 0h15.339l120.189-260.595 120.189 260.595h15.36c0.112 0 0.244 0 0.376 0 173.95 0 315.039-140.698 315.671-314.5v-0.061zM468.32 200.544l7.904 191.2h78.976l7.872-191.168-47.456-69.248-47.296 69.216z" />
<glyph unicode="&#xe90e;" glyph-name="menu2" d="M0.004 920.604h1008.636v-82.538h-1008.636v82.538zM1.119 497.684h1008.656v-82.538h-1008.656v82.538zM1.119 74.374h1008.656v-82.538h-1008.656v82.538z" />
<glyph unicode="&#xe90f;" glyph-name="lightbulb_outline" d="M634 380.667c58 40 92 104 92 174 0 118-96 214-214 214s-214-96-214-214c0-70 34-134 92-174l36-26v-98h172v98zM512 852.667c164 0 298-134 298-298 0-102-50-190-128-244v-98c0-24-18-42-42-42h-256c-24 0-42 18-42 42v98c-78 54-128 142-128 244 0 164 134 298 298 298zM384 42.667v42h256v-42c0-24-18-42-42-42h-172c-24 0-42 18-42 42z" />
<glyph unicode="&#xe910;" glyph-name="edari" horiz-adv-x="1090" d="M742.973-63.996l-97.5 989.845 346.745 34.153 97.492-989.853zM673.135 903.146l92.541-939.48 296.372 29.186-92.533 939.488zM817.263 33.65l251.033 24.791 2.488-25.191-251.033-24.791-2.488 25.191zM810.928 97.961l251.033 24.791 2.488-25.191-251.033-24.791-2.488 25.191zM880.17 241.544c-42.62 0.082-77.138 34.651-77.138 77.282 0 42.682 34.601 77.282 77.282 77.282 40.012 0 72.922-30.407 76.883-69.374l0.027-0.327v-0.008c0.23-2.241 0.362-4.843 0.362-7.476 0-40.028-30.392-72.958-69.359-76.973l-0.331-0.028c-2.587-0.247-5.165-0.379-7.727-0.379zM880.417 370.8q-2.582 0-5.19-0.255c-26.425-2.678-46.875-24.809-46.875-51.716 0-28.7 23.266-51.966 51.966-51.966s51.966 23.266 51.966 51.966c0 1.793-0.091 3.564-0.268 5.31l0.018-0.22c-2.672 26.393-24.75 46.827-51.611 46.88h-0.005zM705.628 444.165l321.546 31.755 2.488-25.191-321.546-31.755-2.488 25.191zM348.417-63.156h-348.417v994.639h348.417zM25.306-37.85h297.806v944.027h-297.806zM671.528-63.156h-348.417v994.639h348.417zM348.417-37.85h297.805v944.027h-297.805zM83.509 26.774h252.256v-25.306h-252.256v25.306zM83.509 91.39h252.256v-25.306h-252.256v25.306zM174.209 227.088c-0.001 0-0.003 0-0.004 0-42.679 0-77.277 34.598-77.277 77.277s34.598 77.277 77.277 77.277c42.679 0 77.277-34.598 77.277-77.277v0c-0.049-42.657-34.615-77.225-77.267-77.277h-0.005zM174.209 356.335c-0.001 0-0.003 0-0.004 0-28.703 0-51.971-23.268-51.971-51.971s23.268-51.971 51.971-51.971c28.703 0 51.971 23.268 51.971 51.971v0c-0.032 28.688-23.279 51.936-51.963 51.971h-0.003zM406.62 26.774h252.256v-25.306h-252.256v25.306zM406.62 91.39h252.256v-25.306h-252.256v25.306zM497.32 227.088c-42.679 0-77.277 34.598-77.277 77.277s34.598 77.277 77.277 77.277c42.679 0 77.277-34.598 77.277-77.277v0c-0.048-42.659-34.617-77.229-77.272-77.277h-0.005zM497.32 356.335c-28.703 0-51.971-23.268-51.971-51.971s23.268-51.971 51.971-51.971c28.703 0 51.971 23.268 51.971 51.971v0c-0.032 28.69-23.281 51.939-51.968 51.971h-0.003zM335.764 446.265h323.111v-25.306h-323.111v25.306zM12.653 446.265h323.111v-25.306h-323.111v25.306z" />
<glyph unicode="&#xe911;" glyph-name="search" horiz-adv-x="1047" d="M445.589 68.807c-0.001 0-0.002 0-0.003 0-246.096 0-445.596 199.5-445.596 445.596s199.5 445.596 445.596 445.596c246.096 0 445.596-199.5 445.596-445.596v0c-0.291-245.978-199.616-445.303-445.565-445.596h-0.028zM445.589 908.138c-0.001 0-0.002 0-0.003 0-217.455 0-393.737-176.282-393.737-393.737s176.282-393.737 393.737-393.737c217.455 0 393.737 176.282 393.737 393.737 0 0.001 0 0.002 0 0.004v0c-0.258 217.35-176.384 393.478-393.709 393.737h-0.025zM786.553 159.665l36.668 36.662 223.642-223.676-36.668-36.662-223.642 223.676z" />
<glyph unicode="&#xe912;" glyph-name="formha-ainnameha" horiz-adv-x="959" d="M115.33 343.921h479.366v-25.228h-479.366v25.228zM115.33 241.199h479.366v-25.228h-479.366v25.228zM320.773 138.482h273.924v-25.228h-273.924v25.228zM277.126 433.314l-141.746 141.737 17.844 17.836 123.901-123.901 279.682 279.674 17.836-17.836-297.518-297.51zM710.028-57.948h-710.029v768.696l247.037 249.25h462.992zM25.227-32.72h659.573v967.491h-427.252l-232.321-234.403zM265.101 695.337h-252.487v25.228h227.225l-0.16 124.322 25.228 0.034 0.193-149.583zM866.173-64l-92.616 175.366v756.021c0 51.148 41.464 92.612 92.612 92.612s92.612-41.464 92.612-92.612v0-756.021zM798.784 117.615l67.389-127.596 67.381 127.596v749.771c0 37.215-30.169 67.385-67.385 67.385s-67.385-30.169-67.385-67.385v0zM786.17 762.6h159.997v-25.228h-159.997v25.228z" />
<glyph unicode="&#xe913;" glyph-name="ketabkhaneh" horiz-adv-x="769" d="M151.508 766.846h-20.376v98.817h462.961c44.677-0.054 80.88-36.258 80.932-80.93v-0.005h-20.376c-0.039 33.429-27.127 60.519-60.552 60.56h-442.59zM675.024 24.63h-99.392v20.376h79.017v739.723h20.376v-760.099zM245.845 861.183h-20.376v98.817h462.961c44.677-0.054 80.88-36.258 80.932-80.93v-0.005h-20.376c-0.039 33.429-27.127 60.519-60.552 60.56h-442.589zM769.363 118.97h-99.399v20.376h79.023v739.716h20.376v-760.092zM505.409 615.163h-452.774v20.376h452.774c33.446 0 60.56 27.114 60.56 60.56s-27.114 60.56-60.56 60.56v0h-442.586v-81.127h-20.376v101.503h462.961c44.699 0 80.935-36.236 80.935-80.935s-36.236-80.935-80.935-80.935v0zM586.349-64.003h-586.349v699.542h52.637v-20.376h-32.261v-658.791h545.598v739.73h20.376v-760.105z" />
<glyph unicode="&#xe914;" glyph-name="sepidar" horiz-adv-x="591" d="M11.177 789.282l-11.177-6.407v-12.968l306.708-177.049v367.141zM33.532 776.391l250.821 144.859v-289.718zM568.78 138.907l-284.427 164.23v-367.137l306.782 177.049v12.968zM306.708-25.254v289.645l250.895-144.859zM579.958 460.891l-295.605 170.641v-367.141l11.177 6.484 11.177 6.407 11.177 6.484 250.895 144.859v-309.093h22.355v334.875zM306.708 303.137v289.722l250.895-144.859zM579.958 460.891l-306.782-177.125 11.177-6.484 11.177-6.407 11.177-6.484 273.325-157.75 11.103 6.407v341.359zM317.885 283.766l250.895 144.859v-289.718zM295.605 625.125l-0.075-0.076-11.177-6.407-11.103-6.484-273.25-157.674v-12.968l11.177-6.407 295.53-170.718v367.141zM33.532 448l250.821 144.859v-289.722zM306.708 618.641v0.073l-295.53 170.569-11.177-6.407v-341.359l11.177-6.407 306.633 177.125zM22.355 467.371v289.645l250.821-144.783-125.411-72.508zM22.355 467.371v-0.073l125.409 72.428z" />
<glyph unicode="&#xe915;" glyph-name="absorption--committee" horiz-adv-x="1058" d="M671.168 526.423c-100.078 0-178.359 80.555-178.359 183.382v101.974c0 83.114 62.928 148.222 143.294 148.222h70.13c80.366 0 143.104-65.108 143.104-148.222v-101.974c0-102.826-78.281-183.382-178.169-183.382zM636.103 931.569c-64.444 0-114.862-52.598-114.862-119.79v-101.974c0-86.905 66.34-154.95 150.022-154.95s149.738 68.046 149.738 154.95v101.974c-0.095 67.193-50.418 119.79-114.768 119.79zM1058.212 51.526h-686.995v28.431h658.563v135.049c0 71.931-17.817 239.202-183.097 239.202h-11.752l-85.294-157.32-78.565 122.349-78.755-122.634-85.294 157.32h-11.562c-70.32 0-121.591-30.042-152.202-89.274l-25.209 13.457c35.444 68.425 96.761 104.248 177.411 104.248h28.431l70.32-129.931 76.67 119.032 76.859-118.653 70.225 129.931h28.431c132.679 0 211.529-100.078 211.529-267.633zM200.63-64c-110.598 0-200.63 93.349-200.63 208.117s90.032 208.496 200.63 208.496 200.63-93.349 200.63-208.496-89.938-208.117-200.63-208.117zM200.63 323.803c-94.771 0-172.199-80.65-172.199-180.065s77.238-180.065 172.199-180.065 172.199 80.65 172.199 180.065-77.238 180.065-172.199 180.065zM88.8 158.333h223.754v-28.431h-223.754v28.431zM186.414 255.947h28.431v-223.754h-28.431v223.754z" />
<glyph unicode="&#xe916;" glyph-name="date_range" d="M810 84.667v470h-596v-470h596zM810 768.667c46 0 86-40 86-86v-598c0-46-40-84-86-84h-596c-48 0-86 38-86 84v598c0 46 38 86 86 86h42v84h86v-84h340v84h86v-84h42zM726 468.667v-84h-86v84h86zM554 468.667v-84h-84v84h84zM384 468.667v-84h-86v84h86z" />
<glyph unicode="&#xe917;" glyph-name="account" horiz-adv-x="728" d="M727.611-64l-727.611 2.738v1021.262h727.611zM28.326-33.030l670.958-2.455v967.158h-670.958zM653.963 671.637h-584.752v28.326h556.425v190.826h28.326v-219.152zM212.637 567.679v-115.289h-115.1v115.289h115.1zM240.963 596.006h-171.753v-171.941h171.753v171.941zM629.885 567.679v-115.289h-115.1v115.289h115.1zM658.212 596.006h-171.753v-171.941h171.753v171.941zM421.308 567.679v-115.289h-115.194v115.289h115.194zM449.635 596.006h-171.847v-171.941h171.847v171.941zM212.637 150.053v-115.383h-115.1v115.383h115.1zM240.963 178.38h-171.753v-172.036h171.753v172.036zM629.885 358.913v-324.243h-115.1v324.243h115.1zM658.212 387.24h-171.753v-380.896h171.753v380.896zM421.308 150.053v-115.383h-115.194v115.383h115.194zM449.635 178.38h-171.847v-172.036h171.847v172.036zM212.637 358.913v-115.383h-115.1v115.383h115.1zM240.963 387.24h-171.753v-172.036h171.753v172.036zM421.308 358.913v-115.383h-115.194v115.383h115.194zM449.635 387.24h-171.847v-172.036h171.847v172.036z" />
<glyph unicode="&#xe918;" glyph-name="accounting-ma" horiz-adv-x="964" d="M963.818-64l-728.232 2.722v1021.278h728.232zM265.829-31.238l667.747-2.419v963.415h-667.747zM890.33 670.28h-584.682v30.242h554.44v189.417h30.242v-219.659zM446.879 565.44v-110.888h-110.888v110.888h110.888zM477.121 595.683h-171.372v-171.372h171.372v171.372zM863.313 565.44v-110.888h-110.888v110.888h110.888zM893.555 595.683h-171.372v-171.372h171.372v171.372zM655.247 565.44v-110.888h-110.888v110.888h110.888zM685.489 595.683h-171.372v-171.372h171.372v171.372zM446.879 148.703v-110.888h-110.888v110.888h110.888zM477.121 178.945h-171.372v-171.372h171.372v171.372zM863.313 357.072v-319.559h-110.888v319.559h110.888zM893.555 387.314h-171.372v-380.043h171.372v380.043zM655.247 148.703v-110.888h-110.888v110.888h110.888zM685.489 178.945h-171.372v-171.372h171.372v171.372zM446.879 357.072v-110.888h-110.888v110.888h110.888zM477.121 387.314h-171.372v-171.372h171.372v171.372zM655.247 357.072v-110.888h-110.888v110.888h110.888zM685.489 387.314h-171.372v-171.372h171.372v171.372zM93.65-56.742l-93.65 142.642v874.1h187.199v-874.1zM30.242 94.973l63.408-96.573 63.408 96.573v834.785h-126.816zM305.648 700.522h125.807v-30.242h-125.807v30.242z" />
<glyph unicode="&#xe919;" glyph-name="bi" horiz-adv-x="1164" d="M571.944 388.061l260.802 260.802 19.683-19.683-260.802-260.802-19.683 19.683zM929.728 57.551l-20.506 18.557c73.072 79.093 117.886 185.236 117.886 301.846 0 245.976-199.403 445.379-445.379 445.379s-445.379-199.403-445.379-445.379c0-116.61 44.814-222.753 118.16-302.146l-0.274 0.3-20.506-18.557c-77.644 84.037-125.263 196.818-125.263 320.721 0 261.349 211.866 473.215 473.215 473.215s473.215-211.866 473.215-473.215c0-123.903-47.619-236.684-125.554-321.040l0.291 0.319zM743.208 559.355l89.558 89.558 19.683-19.683-89.558-89.558-19.683 19.683zM823.951 392.142h126.655v-27.836h-126.655v27.836zM212.947 392.142h126.655v-27.836h-126.655v27.836zM311.098 629.203l19.683 19.683 89.558-89.558-19.683-19.683-89.558 89.558zM567.858 747.053h27.836v-126.655h-27.836v126.655zM959.977-64l-378.201 226.958-378.201-226.958-7.609 6.773c-120.454 107.082-195.967 262.446-195.967 435.447 0 321.306 260.47 581.776 581.776 581.776s581.776-260.47 581.776-581.776c0-173.002-75.513-328.366-195.376-434.932l-0.591-0.516zM581.776 195.433l374.86-225.009c110.224 101.574 179.033 246.647 179.033 407.792 0 305.933-248.007 553.94-553.94 553.94s-553.94-248.007-553.94-553.94c0-161.144 68.809-306.217 178.647-407.441l0.386-0.351z" />
<glyph unicode="&#xe91a;" glyph-name="big-co" horiz-adv-x="1036" d="M517.312 292.52c-78.986 0-143.017 64.031-143.017 143.017s64.031 143.017 143.017 143.017c78.986 0 143.017-64.031 143.017-143.017v0c-0.347-78.846-64.171-142.67-142.984-143.017h-0.033zM517.312 548.929c-62.060 0-112.37-50.31-112.37-112.37s50.31-112.37 112.37-112.37c62.060 0 112.37 50.31 112.37 112.37v0c-0.403 61.877-50.485 111.923-112.337 112.268h-0.033zM517.312 758.449c-0.030 0-0.066 0-0.102 0-55.685 0-100.827 45.142-100.827 100.827s45.142 100.827 100.827 100.827c55.685 0 100.827-45.142 100.827-100.827 0-0.036 0-0.072 0-0.108v0.006c-0.116-55.582-45.143-100.609-100.714-100.725h-0.011zM517.312 929.354c-0.030 0-0.066 0-0.102 0-38.76 0-70.18-31.421-70.18-70.18s31.421-70.18 70.18-70.18c38.76 0 70.18 31.421 70.18 70.18v0c0 0 0 0 0 0 0 38.724-31.363 70.122-70.073 70.18h-0.006zM245.989 659.971c-0.050 0-0.109 0-0.169 0-30.974 0-58.679 13.995-77.137 36.007l-0.127 0.156c-14.631 17.395-23.521 40.042-23.521 64.766 0 55.742 45.187 100.929 100.929 100.929s100.929-45.187 100.929-100.929c0-55.733-45.173-100.915-100.902-100.929h-0.001zM245.989 830.876c-0.012 0-0.026 0-0.040 0-38.76 0-70.18-31.421-70.18-70.18 0-17.152 6.153-32.866 16.372-45.057l-0.089 0.109c12.963-15.489 32.304-25.27 53.929-25.27 38.76 0 70.18 31.421 70.18 70.18 0 36.599-28.015 66.654-63.77 69.892l-0.272 0.020zM100.827 410.407c-0.036 0-0.078 0-0.121 0-55.685 0-100.827 45.142-100.827 100.827s45.142 100.827 100.827 100.827c55.685 0 100.827-45.142 100.827-100.827 0-6.355-0.588-12.573-1.713-18.603l0.097 0.623c-8.856-47.361-49.826-82.744-99.079-82.848h-0.011zM100.827 581.312c-38.812-0.079-70.245-31.561-70.245-70.385 0-38.872 31.512-70.385 70.385-70.385s70.385 31.512 70.385 70.385c0 34.444-24.742 63.11-57.422 69.194l-0.435 0.067c-3.749 0.716-8.061 1.125-12.469 1.125-0.142 0-0.283 0-0.424-0.001h0.022zM149.657 125.804c-0.048 0-0.106 0-0.163 0-55.629 0-100.725 45.096-100.725 100.725s45.096 100.725 100.725 100.725c55.629 0 100.725-45.096 100.725-100.725 0-37.31-20.285-69.881-50.428-87.288l-0.486-0.259c-14.269-8.257-31.384-13.142-49.637-13.178h-0.010zM149.657 296.709c-0.028 0-0.061 0-0.094 0-38.872 0-70.385-31.512-70.385-70.385s31.512-70.385 70.385-70.385c38.872 0 70.385 31.512 70.385 70.385 0 32.186-21.603 59.325-51.1 67.71l-0.496 0.121c-5.69 1.672-12.229 2.641-18.992 2.656h-0.008zM369.188-61.548c-55.674 0.015-100.8 45.151-100.8 100.827 0 55.685 45.142 100.827 100.827 100.827s100.827-45.142 100.827-100.827c0-12.659-2.333-24.773-6.592-35.935l0.232 0.692c-14.736-38.623-51.466-65.564-94.491-65.583h-0.002zM369.188 109.357c-0.058 0-0.127 0-0.196 0-38.76 0-70.18-31.421-70.18-70.18s31.421-70.18 70.18-70.18c38.76 0 70.18 31.421 70.18 70.18 0 29.88-18.674 55.399-44.987 65.523l-0.48 0.162c-7.225 2.911-15.596 4.661-24.358 4.801l-0.057 0.001zM658.081-63.898c-0.058 0-0.126 0-0.195 0-55.685 0-100.827 45.142-100.827 100.827s45.142 100.827 100.827 100.827c43.676 0 80.866-27.77 94.875-66.617l0.221-0.703c3.631-9.979 5.73-21.498 5.73-33.507 0-55.617-45.031-100.716-100.622-100.827h-0.011zM658.081 107.007c-38.747-0.017-70.151-31.431-70.151-70.18 0-38.76 31.421-70.18 70.18-70.18s70.18 31.421 70.18 70.18c0 8.385-1.471 16.428-4.168 23.882l0.154-0.489c-9.959 27.495-35.846 46.787-66.239 46.787-0.021 0-0.042 0-0.063 0h0.003zM881.085 119.164c-0.094 0-0.205 0-0.316 0-55.629 0-100.725 45.096-100.725 100.725s45.096 100.725 100.725 100.725c19.172 0 37.094-5.357 52.349-14.655l-0.444 0.251c29.838-17.849 49.506-49.993 49.506-86.73 0-55.629-45.096-100.725-100.725-100.725-0.13 0-0.26 0-0.39 0.001h0.020zM881.085 290.069c-0.235 0.003-0.512 0.004-0.789 0.004-38.703 0-70.078-31.375-70.078-70.078s31.375-70.078 70.078-70.078c38.703 0 70.078 31.375 70.078 70.078 0 25.229-13.332 47.344-33.335 59.685l-0.302 0.173c-10.070 6.248-22.247 10.025-35.293 10.215l-0.052 0.001zM935.023 402.848c-0.051 0-0.111 0-0.171 0-55.685 0-100.827 45.142-100.827 100.827s45.142 100.827 100.827 100.827c55.685 0 100.827-45.142 100.827-100.827 0-49.925-36.285-91.375-83.922-99.416l-0.593-0.083c-4.846-0.835-10.433-1.318-16.131-1.328h-0.010zM935.023 573.753c-0.034 0-0.075 0-0.116 0-38.76 0-70.18-31.421-70.18-70.18s31.421-70.18 70.18-70.18c38.76 0 70.18 31.421 70.18 70.18 0 3.968-0.329 7.859-0.962 11.647l0.057-0.41c-5.789 33.447-34.436 58.614-69.022 58.943h-0.035zM794.356 654.966c-55.587 0.129-100.6 45.221-100.6 100.827 0 25.295 9.315 48.414 24.701 66.115l-0.105-0.123c18.592 21.424 45.863 34.893 76.281 34.893 55.685 0 100.827-45.142 100.827-100.827 0-53.195-41.194-96.768-93.421-100.559l-0.328-0.019zM741.542 801.762c-10.662-12.242-17.161-28.353-17.161-45.981 0-38.76 31.421-70.18 70.18-70.18s70.18 31.421 70.18 70.18c0 21.137-9.344 40.091-24.127 52.957l-0.085 0.072c-12.208 10.781-28.346 17.363-46.020 17.363-21.157 0-40.112-9.431-52.89-24.319l-0.078-0.093zM587.881 544.053l135.239 161.229 23.48-19.695-135.239-161.229-23.48 19.695zM640.915 473.34l207.236 36.579 5.327-30.18-207.236-36.579-5.327 30.18zM216.331 279.924l182.245 105.219 15.323-26.541-182.245-105.219-15.323 26.541zM501.989 774.589h30.646v-150.678h-30.646v150.678zM619.65 357.401l15.642 26.354 129.575-76.905-15.642-26.354-129.575 76.905zM543.904 309.707l29.030 9.821 48.285-142.733-29.030-9.821-48.285 142.733zM405.651 180.033l52.572 141.21 28.721-10.693-52.572-141.21-28.721 10.693zM288.411 685.961l23.518 19.65 96.612-115.629-23.518-19.65-96.612 115.629zM181.597 483.081l5.632 30.124 148.112-27.692-5.632-30.124-148.112 27.692z" />
<glyph unicode="&#xe91b;" glyph-name="bpm" d="M511.954-64c-282.744 0-511.954 229.21-511.954 511.954s229.21 511.954 511.954 511.954c282.744 0 511.954-229.21 511.954-511.954v0c-0.366-282.597-229.357-511.588-511.919-511.954h-0.035zM511.954 932.411c-267.508 0-484.365-216.858-484.365-484.365s216.858-484.365 484.365-484.365c267.508 0 484.365 216.858 484.365 484.365v0c-0.314 267.382-216.984 484.052-484.336 484.365h-0.030zM197.167 341.094v213.812h99.963c42.027 0 67.5-20.324 67.5-53.338-0.513-23.812-18.557-43.255-41.714-45.96l-0.221-0.021v-1.379c28.36-0.15 51.352-22.917 51.866-51.175l0.001-0.048c0-37.521-29.060-61.615-74.765-61.615zM251.517 467.726h28.6c19.864 0 31.543 9.196 31.543 24.738s-10.668 23.818-28.876 23.818h-31.267zM284.439 379.626c22.347 0 34.946 9.748 34.946 27.589s-12.783 27.589-35.222 27.589h-32.647v-55.177zM491.171 554.906c45.981 0 76.88-29.796 76.88-75.685s-32.739-75.409-80.283-75.409h-35.957v-62.718h-54.35v213.812zM451.811 445.011h24.554c23.083 0 36.785 11.955 36.785 34.394s-13.61 34.21-36.785 34.21h-24.554zM826.833 341.094h-47.82v133.529h-1.012l-52.97-131.23h-31.083l-52.694 131.23h-1.196v-133.529h-47.82v213.812h62.81l53.89-137.484h1.196l53.89 137.3h62.81z" />
<glyph unicode="&#xe91c;" glyph-name="call" horiz-adv-x="803" d="M380.769 694.142l103.216 265.831 26.897-10.443-103.216-265.831-26.897 10.443zM-0.013 121.595l178.608 222.303 22.493-18.072-178.608-222.303-22.493 18.072zM303.247-64c-22.121 0-113.393 7.694-236.115 123.588l-9.618 9.618 181.487 225.44 140.13-78.481 212.552 368.167-138.014 82.135 104.929 270.162 12.792-3.847c182.737-54.533 225.728-143.304 227.459-147.055l0.866-1.827v-2.020c1.346-8.848 31.642-220.631-125.031-491.274s-354.125-350.085-362.492-353.548l-1.924-0.769h-2.020zM96.754 71.514c112.239-102.044 193.316-106.661 207.070-106.661v0c21.736 9.618 204.088 93.677 346.238 340.179s124.453 446.744 121.664 470.211c-6.54 11.637-50.397 79.635-195.913 125.992l-86.56-222.458 141.669-84.251-241.020-417.41-143.689 80.789z" />
<glyph unicode="&#xe91d;" glyph-name="catalog" horiz-adv-x="715" d="M611.857 349.202h-336.389v301.779h336.389zM301.956 375.69h283.414v248.804h-283.414zM99.327 142.601h-99.327v817.399h508.557v-214.194h-26.487v187.707h-455.582v-764.424h72.84v-26.487zM715.158-64.177h-542.549v811.483l317.848 207.484 14.745-22.161-274.85-179.231h484.806zM199.096-37.689h489.574v764.601h-489.574zM271.495 272.389h344.335v-26.487h-344.335v26.487zM271.495 169.088h344.335v-26.487h-344.335v26.487zM426.446 65.788h189.384v-26.487h-189.384v26.487z" />
<glyph unicode="&#xe91e;" glyph-name="cement" horiz-adv-x="1494" d="M1174.422 200.456l-20.372 32.545 136.2 85.333 129.538 242.29-112.753 180.148 32.545 20.372 124.541-198.983-144.785-270.991-144.913-90.715zM969.417 141.261c-31.046 0.025-61.228 3.666-90.165 10.525l2.654-0.531c-102.424 23.843-187.286 86.076-240.329 170.354l-0.936 1.594 32.545 20.372c62.725-99.030 171.712-163.82 295.831-163.82 68.676 0 132.72 19.835 186.714 54.089l-1.424-0.844 20.372-32.545c-58.096-37.138-128.946-59.195-204.947-59.195-0.11 0-0.221 0-0.331 0h0.017zM1307.035 740.773l-112.753 180.020-274.579-10.763-136.2-85.333-20.372 32.545 144.913 90.843 306.995 11.916 124.541-198.855-32.545-20.372zM946.832 840.201l32.576 20.403 341.757-545.653-32.576-20.403-341.757 545.653zM640.641 323.203c-37.068 58.396-59.073 129.521-59.073 205.786 0 137.748 71.787 258.729 179.99 327.573l1.573 0.936 20.372-32.545c-98.955-62.827-163.675-171.832-163.675-295.953 0-68.617 19.779-132.614 53.947-186.601l-0.847 1.433zM789.254 741.679l32.576 20.403 341.757-545.653-32.576-20.403-341.757 545.653zM294.695 220.444c67.933 0 123.003-55.070 123.003-123.003s-55.070-123.003-123.003-123.003c-67.933 0-123.003 55.070-123.003 123.003v0c0.073 67.903 55.1 122.93 122.996 123.003h0.007zM294.695 258.883c-89.162 0-161.441-72.28-161.441-161.441s72.28-161.441 161.441-161.441c89.162 0 161.441 72.28 161.441 161.441v0c0 89.162-72.28 161.441-161.441 161.441v0zM171.564 41.706h-171.564v138.378h177.073v-38.438h-138.635v-61.502h133.125v-38.438zM1367.768 180.084h126.078v-38.438h-126.078v38.438zM425.257 80.144h697.017v-38.438h-697.017v38.438zM416.416 180.084h583.367v-38.438h-583.367v38.438zM537.497 160.865h-38.438v580.42h-192.705l-126.078-249.594h-91.099v-305.842h-38.438v344.28h105.834l126.206 249.594h254.719v-618.859zM168.36 530.13h242.29v-38.438h-242.29v38.438zM1242.843 220.444c67.933 0 123.003-55.070 123.003-123.003s-55.070-123.003-123.003-123.003c-67.933 0-123.003 55.070-123.003 123.003v0c0.073 67.903 55.1 122.93 122.996 123.003h0.007zM1242.843 258.883c-89.162 0-161.441-72.28-161.441-161.441s72.28-161.441 161.441-161.441c89.162 0 161.441 72.28 161.441 161.441v0c0 89.162-72.28 161.441-161.441 161.441v0z" />
<glyph unicode="&#xe91f;" glyph-name="ceramic" horiz-adv-x="1028" d="M271.261 760.458h412.846v-26.465h-412.846v26.465zM287.14 733.993h-287.14v226.007h287.14zM26.465 760.458h234.211v173.078h-234.211zM542.522 135.454h-542.522v226.007h542.522zM26.465 161.919h489.593v173.078h-489.593zM800.551-64h-542.522v225.919h542.522zM284.493-37.535h489.593v172.99h-489.593zM542.522 534.539h-542.522v225.919h542.522zM26.465 561.003h489.593v172.99h-489.593zM284.493 334.997h-284.493v226.007h284.493zM26.465 361.461h231.564v173.078h-231.564zM284.493-64h-284.493v225.919h284.493zM26.465-37.535h231.564v172.99h-231.564zM787.319 161.919h240.827v-26.465h-240.827v26.465zM787.319-37.535h240.827v-26.465h-240.827v26.465zM529.29 361.461h361.241v-26.465h-361.241v26.465zM273.908 960h272.584v-26.465h-272.584v26.465zM800.551 356.345h-26.465v178.194h-502.826v26.465h529.29v-204.659z" />
<glyph unicode="&#xe920;" glyph-name="clock" d="M512.413-64c-0.123 0-0.268 0-0.413 0-282.77 0-512 229.23-512 512s229.23 512 512 512c282.77 0 512-229.23 512-512 0-0.145 0-0.29 0-0.435v0.022c-0.469-282.352-229.234-511.117-511.541-511.587h-0.046zM512.413 935.206c-268.898-0.235-486.792-218.275-486.792-487.206 0-269.076 218.129-487.206 487.206-487.206 268.931 0 486.97 217.894 487.206 486.77v0.022c0 269.305-218.314 487.619-487.619 487.619v0zM834.324 435.603h-334.722v399.186h24.794v-374.392h309.927v-24.794z" />
<glyph unicode="&#xe921;" glyph-name="co1" horiz-adv-x="900" d="M338.687 127.835l-140.238 88.112-140.238-88.112v293.529h26.46v-245.637l113.778 71.53 113.778-71.53v245.637h26.46v-293.529zM198.45 360.241c-109.601 0-198.449 88.849-198.449 198.45s88.849 198.45 198.45 198.45c109.477 0 198.249-88.648 198.449-198.078v-0.019c0-0.026 0-0.057 0-0.088 0-109.654-88.817-198.563-198.435-198.714h-0.014zM198.45 730.68c-94.987 0-171.989-77.003-171.989-171.99s77.002-171.99 171.99-171.99c94.987 0 171.99 77.002 171.99 171.99 0 0.124 0 0.248 0 0.372v-0.019c-0.301 94.795-77.167 171.537-171.98 171.637h-0.009zM164.228 484.162l-67.737 67.649 18.698 18.698 49.039-48.951 117.482 117.482 18.698-18.698-136.181-136.181zM899.638-64h-714.419v295.646h26.46v-269.186h661.499v971.080l-661.499-0.265v-141.296h-26.46v167.756l714.419 0.265v-1024zM626.483 448h-26.46v141.737h-144.030v26.46h170.49v-168.197zM832.783 448h-26.46v141.737h-138.738v26.46h165.198v-168.197zM626.483 654.388h-26.46v141.561h-141.473v26.46h167.932v-168.021zM832.783 654.388h-26.46v141.561h-141.384v26.46h167.844v-168.021zM626.483 241.612h-26.46v141.914h-141.473v26.46h167.932v-168.373zM626.483 26.405h-26.46v142.002h-141.473v26.46h167.932v-168.462zM832.871 26.405h-26.46v142.002h-141.561v26.46h168.021v-168.462zM832.783 241.612h-26.46v141.914h-141.384v26.46h167.844v-168.373zM249.958 891.116h636.45v-26.46h-636.45v26.46z" />
<glyph unicode="&#xe922;" glyph-name="co2" horiz-adv-x="900" d="M276.683 571.656l-19.404 17.993 48.069 52.038v86.171h-213.796v-86.171l48.069-52.038-19.404-17.993-55.125 59.623v123.039h266.716v-123.039l-55.125-59.623zM274.831 304.058l-76.381 40.131-76.381-40.219 14.641 85.113-61.74 60.24 85.466 12.436 38.191 77.439 38.191-77.439 85.466-12.436-61.74-60.24zM198.45 374.089l41.278-21.697-7.85 45.952 33.34 32.458-46.129 6.703-20.639 41.895-20.639-41.807-46.129-6.791 33.428-32.546-7.85-45.952zM198.45 210.301c-109.601 0-198.45 88.849-198.45 198.45s88.849 198.45 198.45 198.45c109.601 0 198.45-88.849 198.45-198.45v0c-0.15-109.54-88.909-198.299-198.435-198.45h-0.015zM198.45 580.741c-94.987 0-171.99-77.002-171.99-171.99s77.002-171.99 171.99-171.99c94.987 0 171.99 77.002 171.99 171.99v0c-0.1 94.947-77.043 171.889-171.98 171.99h-0.009zM899.638-64h-714.419v287.531h26.46v-261.071h661.499v971.080l-661.499-0.265v-141.296h-26.46v167.756l714.419 0.265v-1024zM627.013 448h-26.46v141.737h-143.942v26.46h170.402v-168.197zM833.4 448h-26.46v141.737h-138.827v26.46h165.286v-168.197zM627.013 654.388h-26.46v141.561h-141.473v26.46h167.932v-168.021zM833.4 654.388h-26.46v141.561h-141.473v26.46h167.932v-168.021zM627.013 241.612h-26.46v141.914h-141.473v26.46h167.932v-168.373zM627.013 26.405h-26.46v142.002h-141.473v26.46h167.932v-168.462zM833.4 26.405h-26.46v142.002h-141.473v26.46h167.932v-168.462zM833.4 241.612h-26.46v141.914h-141.473v26.46h167.932v-168.373zM249.958 891.116h636.45v-26.46h-636.45v26.46z" />
<glyph unicode="&#xe923;" glyph-name="cohistory" horiz-adv-x="626" d="M625.694 866.909h-625.694v93.091h625.694zM26.471 893.38h572.752v40.148h-572.752zM625.694-63.559h-625.694v92.65h625.694zM26.471-37.087h572.752v39.707h-572.752zM93.003 15.855h-26.471v215.741c0 52.943 93.444 118.327 247.066 219.095 104.827 68.737 235.33 154.24 235.33 196.947v232.948h26.471v-232.86c0-52.943-93.444-118.327-247.066-219.095-104.827-68.649-235.33-154.24-235.33-197.035zM575.752 15.855h-26.471v215.741c0 42.795-130.504 128.298-235.33 196.947-153.887 100.856-247.066 165.887-247.066 219.095v232.948h26.471v-232.86c0-42.795 130.504-128.298 235.33-196.947 153.887-100.856 247.066-165.887 247.066-219.095zM131.474 771.171h431.042v-26.471h-431.042v26.471z" />
<glyph unicode="&#xe924;" glyph-name="contract" horiz-adv-x="1652" d="M1545.889 186.792h-39.557c-0.064 325.322-263.805 589.023-589.136 589.023-239.439 0-445.515-142.84-537.666-347.955l-1.496-3.726-36.261 15.955c99.971 222.773 319.839 375.128 575.291 375.128 347.124 0 628.541-281.323 628.693-628.411v-0.014zM0-64v60.259l145.042 145.042c0 11.735-1.45 32.569-1.45 45.227-0.001 0.356-0.001 0.778-0.001 1.199 0 412.819 323.463 750.089 730.766 772.188l1.963 0.085h7.12l221.783-174.578-23.998-31.118-210.18 165.348c-385.084-24.792-688.029-343.195-688.029-732.355 0-0.177 0-0.355 0-0.532v0.027c0-17.141 1.846-51.688 1.846-51.952v-8.834l-145.306-146.097v-4.219l1480.356 6.461c50.976 0 92.3 41.324 92.3 92.3s-41.324 92.3-92.3 92.3v0h-711.236v39.557h711.236c72.823 0 131.857-59.034 131.857-131.857s-59.034-131.857-131.857-131.857v0z" />
<glyph unicode="&#xe925;" glyph-name="copyright" d="M512-64c-282.77 0-512 229.23-512 512s229.23 512 512 512c282.77 0 512-229.23 512-512v0c-0.343-282.632-229.368-511.657-511.967-512h-0.033zM512 929.882c-266.136 0-481.882-215.746-481.882-481.882s215.746-481.882 481.882-481.882c266.136 0 481.882 215.746 481.882 481.882v0c-0.286 266.021-215.861 481.597-481.855 481.882h-0.028zM505.073 106.667c-0.056 0-0.122 0-0.188 0-188.513 0-341.333 152.82-341.333 341.333s152.82 341.333 341.333 341.333c102.897 0 195.159-45.53 257.74-117.543l0.355-0.418-22.789-20.078c-57.382 66.021-141.492 107.52-235.294 107.52-171.88 0-311.216-139.336-311.216-311.216s139.336-311.216 311.216-311.216c93.803 0 177.912 41.5 234.971 107.14l0.323 0.38 22.789-20.078c-62.91-71.958-154.875-117.158-257.398-117.158-0.179 0-0.358 0-0.537 0h0.028z" />
<glyph unicode="&#xe926;" glyph-name="customer" horiz-adv-x="898" d="M448.827 459.616c-114.91 0-204.889 93.018-204.889 211.323v119.288c0 95.341 72.020 169.773 163.965 169.773h81.938c92.124 0 164.233-74.7 164.233-169.773v-119.288c0-118.305-90.158-211.323-205.247-211.323zM407.902 933.194c-77.291 0-137.159-62.548-137.159-142.967v-119.288c0-103.294 78.274-184.517 178.083-184.517s178.709 80.866 178.709 184.159v119.645c0 80.419-60.403 142.967-137.427 142.967zM898.010-64h-26.806v157.264c-0.684 153.282-122.86 277.804-275.157 282.261l-0.412 0.010-146.63-318.012-146.63 318.012c-152.708-4.466-274.884-128.988-275.568-282.203v-157.331h-26.806v157.264c0.761 170.911 139.487 309.166 310.503 309.166 0.158 0 0.316 0 0.474 0h8.91l129.117-280.84 129.474 280.84h8.935c0.027 0 0.060 0 0.092 0 171.017 0 309.742-138.255 310.503-309.093v-0.073zM414.246 196.825l-26.806 1.072 8.578 207.659h106.153l8.578-207.57-26.717-1.162-7.506 181.925h-54.774l-7.506-181.925z" />
<glyph unicode="&#xe927;" glyph-name="disribute3" d="M511.954-64c-282.744 0-511.954 229.21-511.954 511.954s229.21 511.954 511.954 511.954c282.744 0 511.954-229.21 511.954-511.954v0c-0.366-282.597-229.357-511.588-511.919-511.954h-0.035zM511.954 932.411c-267.508 0-484.365-216.858-484.365-484.365s216.858-484.365 484.365-484.365c267.508 0 484.365 216.858 484.365 484.365v0c-0.314 267.382-216.984 484.052-484.336 484.365h-0.030zM369.398 332.051l9.436 25.925 229.262-83.445-9.436-25.925-229.262 83.445zM618.636 633.683l27.17 4.786 42.34-240.367-27.17-4.786-42.34 240.367zM284.618 484.375l187.022 156.819 17.726-21.14-187.022-156.819-17.726 21.14zM613.204 620.659c-67.246 0.134-121.707 54.678-121.707 121.942 0 67.347 54.595 121.942 121.942 121.942s121.942-54.595 121.942-121.942c0-59.89-43.175-109.696-100.098-119.991l-0.743-0.111c-6.373-1.17-13.706-1.839-21.196-1.839-0.049 0-0.098 0-0.147 0h0.008zM613.664 836.311c-0.007 0-0.014 0-0.022 0-52.008 0-94.169-42.161-94.169-94.169 0-5.719 0.51-11.319 1.487-16.757l-0.085 0.572c8.046-44.443 46.441-77.71 92.606-77.71 51.933 0 94.034 42.1 94.034 94.034 0 5.768-0.519 11.416-1.514 16.897l0.086-0.574c-8.024 44.219-46.072 77.366-91.926 77.708h-0.037zM210.686 282.882c-66.86 0.374-120.915 54.66-120.915 121.572 0 67.144 54.431 121.574 121.574 121.574 59.668 0 109.297-42.985 119.608-99.678l0.112-0.743c1.154-6.294 1.813-13.538 1.813-20.936 0-59.86-43.196-109.63-100.118-119.841l-0.739-0.11c-6.373-1.17-13.706-1.839-21.196-1.839-0.049 0-0.098 0-0.147 0h0.008zM210.686 498.533c-51.81-0.128-93.761-42.157-93.761-93.985 0-51.907 42.079-93.985 93.985-93.985s93.985 42.079 93.985 93.985c0 5.752-0.517 11.383-1.506 16.85l0.086-0.573c-8.093 44.383-46.409 77.604-92.503 77.708h-0.011zM704.707 103.187c-67.162 0.043-121.59 54.498-121.59 121.666 0 67.194 54.472 121.666 121.666 121.666s121.666-54.472 121.666-121.666c0-59.747-43.066-109.435-99.849-119.715l-0.741-0.111c-6.339-1.17-13.633-1.839-21.083-1.839-0.024 0-0.048 0-0.072 0h0.004zM704.707 318.839c-5.852-0.003-11.578-0.538-17.133-1.56l0.58 0.089c-44.285-8.158-77.392-46.467-77.392-92.509 0-51.907 42.079-93.985 93.985-93.985s93.985 42.079 93.985 93.985c0 5.75-0.516 11.38-1.505 16.845l0.086-0.573c-8.024 44.219-46.072 77.366-91.926 77.708h-0.037z" />
<glyph unicode="&#xe928;" glyph-name="distribute" horiz-adv-x="1542" d="M577.743 157.933v580.134l455.421-290.067zM617.588 665.417v-434.835l341.466 217.417zM1541.977-64h-1541.977v1024h1541.977zM39.844-24.156h1462.288v944.311h-1462.288z" />
<glyph unicode="&#xe929;" glyph-name="distribute2" horiz-adv-x="1017" d="M508.691 101.386v26.476c176.783 0 320.094 143.311 320.094 320.094s-143.311 320.094-320.094 320.094v0 26.476c191.405 0 346.57-155.165 346.57-346.57s-155.165-346.57-346.57-346.57v0zM508.691 101.386c-191.405 0-346.57 155.165-346.57 346.57s155.165 346.57 346.57 346.57v0-26.476c-176.783 0-320.094-143.311-320.094-320.094s143.311-320.094 320.094-320.094v0zM225.928 715.363l-79.957 79.957 18.71 18.71 61.248-61.071c75.816 71.862 178.485 116.053 291.475 116.053 0.226 0 0.452 0 0.677-0.001h0.936v-26.476h-0.971c-0.025 0-0.055 0-0.085 0-110.526 0-210.53-45.050-282.65-117.79l-0.028-0.028zM80.399 799.026c-44.403 0-80.399 35.996-80.399 80.399s35.996 80.399 80.399 80.399c44.403 0 80.399-35.996 80.399-80.399v0c-0.050-44.383-36.016-80.348-80.394-80.399h-0.005zM80.399 933.524c-29.781 0-53.923-24.142-53.923-53.923s24.142-53.923 53.923-53.923c29.781 0 53.923 24.142 53.923 53.923v0c0 29.781-24.142 53.923-53.923 53.923v0zM925.333 440.807h-26.476v0.971c0 0.192 0.001 0.42 0.001 0.648 0 110.34-44.909 210.19-117.445 282.271l-0.021 0.020-9.355 9.355 79.957 79.957 18.71-18.71-61.071-61.248c71.862-75.816 116.053-178.485 116.053-291.475 0-0.257 0-0.514-0.001-0.77v0.040zM936.012 799.291c-44.403 0-80.399 35.996-80.399 80.399s35.996 80.399 80.399 80.399c44.403 0 80.399-35.996 80.399-80.399v0c-0.050-44.383-36.016-80.348-80.394-80.399h-0.005zM936.012 933.524c-29.781 0-53.923-24.142-53.923-53.923s24.142-53.923 53.923-53.923c29.781 0 53.923 24.142 53.923 53.923v0c0 29.781-24.142 53.923-53.923 53.923v0zM498.453 27.254h-0.971v26.476h0.971c0.181 0 0.396 0 0.611 0 110.351 0 210.213 44.908 282.308 117.445l9.375 9.375 79.957-79.957-18.71-18.798-61.248 61.071c-75.76-71.598-178.245-115.613-291.010-115.613-0.452 0-0.903 0.001-1.355 0.002h0.070zM936.276-63.735c-44.403 0-80.399 35.996-80.399 80.399s35.996 80.399 80.399 80.399c44.403 0 80.399-35.996 80.399-80.399v0c-0.050-44.383-36.016-80.348-80.394-80.399h-0.005zM936.276 70.498c-29.781 0-53.923-24.142-53.923-53.923s24.142-53.923 53.923-53.923c29.781 0 53.923 24.142 53.923 53.923v0c0 29.781-24.142 53.923-53.923 53.923v0zM164.945 82.059l-18.71 18.71 61.071 61.248c-71.809 75.805-115.965 178.437-115.965 291.382 0 0.29 0 0.579 0.001 0.869v-0.045 0.971h26.476v-0.971c0-0.192-0.001-0.42-0.001-0.648 0-110.34 44.909-210.19 117.445-282.271l0.021-0.020 9.355-9.355-9.355-9.443zM80.663-63.735c-44.403 0-80.399 35.996-80.399 80.399s35.996 80.399 80.399 80.399c44.403 0 80.399-35.996 80.399-80.399v0c-0.050-44.383-36.016-80.348-80.394-80.399h-0.005zM80.663 70.498c-29.781 0-53.923-24.142-53.923-53.923s24.142-53.923 53.923-53.923c29.781 0 53.923 24.142 53.923 53.923v0c-0.15 29.667-24.234 53.658-53.922 53.658 0 0 0 0-0.001 0v0z" />
<glyph unicode="&#xe92a;" glyph-name="download" horiz-adv-x="1020" d="M1020.046-64h-1020.046v1020.046h272.803v-26.358h-246.445v-967.331h967.331v967.331h-243.81v26.358h270.167v-1020.046zM496.844 960h26.358v-739.951h-26.358v739.951zM510.023 76.136l-246.533 246.533 18.626 18.626 227.907-227.819 227.907 227.819 18.626-18.626-246.533-246.533z" />
<glyph unicode="&#xe92b;" glyph-name="email" horiz-adv-x="1542" d="M1541.977-64h-1541.977v1024h1541.977zM39.844-24.156h1462.288v944.311h-1462.288zM770.988 292.607l-763.816 632.064 25.5 30.813 738.316-611.080 738.316 611.080 25.5-30.813-763.816-632.064zM994.668 366.634l25.403 30.696 514.775-426.010-25.403-30.696-514.775 426.010zM6.621-28.722l514.775 426.010 25.403-30.696-514.775-426.010-25.403 30.696z" />
<glyph unicode="&#xe92c;" glyph-name="establishment" d="M597.137-25.792h-209.213v87.449c-41.061 10.751-77.070 26.14-110.095 45.989l1.879-1.047-61.734-61.653-147.723 147.966 61.734 61.328c-18.758 31.171-34.096 67.213-44.133 105.405l-0.646 2.893h-87.206v209.538h87.368c10.737 41.059 26.128 77.070 45.986 110.089l-1.044-1.872-61.653 61.734 148.372 147.723 61.653-61.734c31.053 18.692 66.956 33.998 104.994 44.047l2.898 0.651v87.287h209.213v-87.368c40.972-10.768 76.898-26.156 109.845-45.987l-1.872 1.045 61.734 61.653 147.966-148.372-61.734-61.653c18.76-31.171 34.099-67.213 44.133-105.405l0.646-2.892h87.287v-209.213h-87.368c-6.543-24.935-14.165-46.227-23.375-66.649l1.067 2.644-22.227 9.816c8.96 19.61 16.948 42.792 22.735 66.83l0.547 2.691 2.19 9.41h81.933v160.54h-82.014l-2.19 9.41c-10.463 44.898-27.242 84.504-49.63 120.238l0.957-1.638-5.111 8.112 57.759 57.759-113.57 113.57-57.921-57.596-8.112 5.111c-34.062 21.595-73.629 38.532-115.855 48.623l-2.663 0.537-9.41 2.19v82.257h-160.621v-82.176l-9.41-2.19c-44.898-10.469-84.504-27.248-120.24-49.631l1.64 0.958-8.112-5.111-57.759 57.84-113.57-113.57 58.002-58.083-5.111-8.112c-21.602-34.061-38.54-73.63-48.624-115.86l-0.536-2.659-2.19-9.41h-82.663v-160.459h82.176l2.19-9.41c10.461-44.898 27.24-84.505 49.63-120.238l-0.957 1.638 5.111-8.112-57.84-58.245 113.57-113.57 58.083 58.002 8.112-5.111c34.063-21.587 73.629-38.524 115.853-48.622l2.666-0.538 9.41-2.19v-82.095h160.459v82.014l9.41 2.19c26.749 6.263 49.964 14.199 72.097 24.119l-2.494-0.999 9.897-22.146c-17.936-8.183-39.398-15.809-61.581-21.656l-2.911-0.652zM860.621-64l-286.765 286.847c-20.706-6.369-44.508-10.036-69.167-10.036-134.407 0-243.365 108.958-243.365 243.365 0 27.412 4.532 53.765 12.888 78.351l-0.506-1.714 6.246 18.739 154.456-154.861 97.346 31.394 31.394 97.346-154.861 155.105 18.658 6.246c23.172 8.115 49.886 12.803 77.696 12.803 67.131 0 127.881-27.317 171.742-71.442l0.012-0.012c44.163-43.852 71.5-104.6 71.5-171.732 0-25.151-3.837-49.407-10.958-72.212l0.461 1.715 286.603-286.522zM580.507 250.509l280.113-280.195 129.065 129.065-280.113 279.87 2.353 7.139c7.201 20.771 11.359 44.71 11.359 69.62 0 120.966-98.063 219.029-219.029 219.029-17.726 0-34.961-2.106-51.467-6.081l1.494 0.304 136.771-137.015-39.425-123.873-123.548-39.75-137.096 137.096c-3.632-14.933-5.715-32.078-5.715-49.709 0-120.966 98.063-219.029 219.029-219.029 24.707 0 48.458 4.091 70.614 11.632l-1.542-0.456z" />
<glyph unicode="&#xe92d;" glyph-name="event" horiz-adv-x="1234" d="M1068.106 767.635h-156.23v192.365h156.23zM943.759 799.518h92.463v128.598h-92.463zM1088.83 371.213h-197.679v197.679h197.679zM923.035 403.097h133.912v133.912h-133.912zM1088.83 81.071h-197.679v197.679h197.679zM923.035 112.955h133.912v133.912h-133.912zM306.084 879.759h559.56v-31.884h-559.56v31.884zM1233.901-64h-1233.901v943.759h119.564v-31.884h-87.68v-879.992h1170.134v879.992h-149.854v31.884h181.737v-943.759zM322.026 767.635h-156.23v192.365h156.23zM197.679 799.518h92.463v128.598h-92.463zM342.75 371.213h-197.679v197.679h197.679zM176.955 403.097h133.912v133.912h-133.912zM715.79 371.213h-197.679v197.679h197.679zM549.995 403.097h133.912v133.912h-133.912zM342.75 81.071h-197.679v197.679h197.679zM176.955 112.955h133.912v133.912h-133.912zM715.79 81.071h-197.679v197.679h197.679zM549.995 112.955h133.912v133.912h-133.912zM36.666 713.964h1181.293v-31.884h-1181.293v31.884z" />
<glyph unicode="&#xe92e;" glyph-name="fax" horiz-adv-x="1440" d="M1130.393-64h-1130.393v569.784h89.901v-37.2h-52.7v-495.384h1093.193v-37.2zM1439.651-63.752h-327.859v907.315h327.859zM1148.993-26.552h253.458v832.915h-253.458zM1004.408 297.463h-860.567v662.537h860.567zM181.165 334.663h786.042v588.137h-786.166zM574.868 504.792h290.162v-37.2h-290.162v37.2zM1000.316 505.784h130.077v-37.2h-130.077v37.2zM139.377 214.754h242.050v-37.2h-242.050v37.2zM284.458 649.75h580.325v-37.2h-580.325v37.2zM284.458 795.699h580.325v-37.2h-580.325v37.2z" />
<glyph unicode="&#xe92f;" glyph-name="fill-form" horiz-adv-x="715" d="M116.454 340.942h481.696v-26.467h-481.696v26.467zM116.454 237.721h481.696v-26.467h-481.696v26.467zM322.895 134.501h275.255v-26.467h-275.255v26.467zM279.048 429.429l-142.832 142.832 18.703 18.703 124.129-124.129 280.636 280.636 18.703-18.703-299.339-299.339zM714.603-64h-714.603v773.183l248.611 250.817h465.992zM26.467-37.533h661.67v971.066h-428.497l-233.172-235.202zM267.491 692.95h-254.258v26.467h227.791l-0.176 124.394h26.467l0.176-150.861z" />
<glyph unicode="&#xe930;" glyph-name="financial" d="M1024-64h-1024v1024h1024zM26.46-37.54h971.080v971.080h-971.080zM886.408 73.592h-748.817v748.817h748.817v-99.225h-26.46v72.765h-695.897v-695.897h695.897v107.163h26.46v-133.623zM859.948 578.977h26.46v-216.795h-26.46v216.795zM955.204 571.921h-164.052v112.896h164.052zM817.612 598.381h111.132v59.976h-111.132zM955.204 211.183h-164.052v112.455h164.052zM817.612 237.643h111.132v59.535h-111.132zM512 209.86c-131.521 0-238.14 106.619-238.14 238.14s106.619 238.14 238.14 238.14c131.521 0 238.14-106.619 238.14-238.14v0c0-131.521-106.619-238.14-238.14-238.14v0zM512 659.68c-116.907 0-211.68-94.772-211.68-211.68s94.772-211.68 211.68-211.68c116.907 0 211.68 94.772 211.68 211.68v0c0 116.907-94.772 211.68-211.68 211.68v0zM512 289.24c-87.681 0-158.76 71.079-158.76 158.76s71.079 158.76 158.76 158.76c87.681 0 158.76-71.079 158.76-158.76v0c0-87.681-71.079-158.76-158.76-158.76v0zM512 580.3c-73.067 0-132.3-59.233-132.3-132.3s59.233-132.3 132.3-132.3c73.067 0 132.3 59.233 132.3 132.3v0c0 73.067-59.233 132.3-132.3 132.3v0zM605.523 335.821l18.71 18.71 56.13-56.13-18.71-18.71-56.13 56.13zM343.648 298.304l56.13 56.13 18.71-18.71-56.13-56.13-18.71 18.71zM343.551 597.687l18.71 18.71 56.13-56.13-18.71-18.71-56.13 56.13zM605.513 560.276l56.13 56.13 18.71-18.71-56.13-56.13-18.71 18.71z" />
<glyph unicode="&#xe931;" glyph-name="followup" horiz-adv-x="1026" d="M913.13 495.048c-0.009 0-0.021 0-0.032 0-62.453 0-113.081 50.628-113.081 113.081s50.628 113.081 113.081 113.081c62.453 0 113.081-50.628 113.081-113.081 0-10.39-1.401-20.452-4.025-30.009l0.186 0.794c-13.299-48.677-57.126-83.866-109.172-83.866-0.014 0-0.027 0-0.041 0h0.002zM913.13 693.563c-39.277-0.106-72.32-26.672-82.251-62.806l-0.141-0.6c-1.807-6.552-2.846-14.076-2.846-21.842 0-47.082 38.167-85.249 85.249-85.249s85.249 38.167 85.249 85.249c0 47.082-38.167 85.249-85.249 85.249-0.004 0-0.008 0-0.012 0h0.001zM143.679 698.171c-10.161 0.014-20.001 1.358-29.365 3.868l0.795-0.181c-49.137 13.020-84.764 57.089-84.764 109.478 0 62.453 50.628 113.081 113.081 113.081s113.081-50.628 113.081-113.081c0-10.085-1.32-19.862-3.797-29.167l0.179 0.79c-13.051-49.004-56.959-84.543-109.193-84.696h-0.018zM143.679 896.685c-47.084-0.131-85.203-38.33-85.203-85.433 0-47.183 38.25-85.433 85.433-85.433 39.585 0 72.882 26.922 82.58 63.455l0.135 0.596c1.727 6.416 2.719 13.783 2.719 21.382 0 47.183-38.25 85.433-85.433 85.433-0.081 0-0.162 0-0.243 0h0.013zM355.004-64c-0.019 0-0.043 0-0.066 0-62.453 0-113.081 50.628-113.081 113.081s50.628 113.081 113.081 113.081c62.453 0 113.081-50.628 113.081-113.081 0-10.088-1.321-19.868-3.799-29.175l0.179 0.789c-12.869-49.077-56.827-84.696-109.104-84.696-0.102 0-0.205 0-0.307 0h0.016zM355.004 134.422c-0.053 0-0.115 0-0.178 0-47.183 0-85.433-38.25-85.433-85.433s38.25-85.433 85.433-85.433c47.183 0 85.433 38.25 85.433 85.433 0 39.52-26.835 72.773-63.277 82.532l-0.597 0.136c-6.401 1.767-13.759 2.807-21.352 2.857h-0.029zM564.854 29.175l-5.53 27.095c203.057 43.248 353.236 220.872 353.714 433.657v0.052q0 5.437 0 10.875l27.648 0.645q0-5.806 0-11.52c-0.512-226.139-160.082-414.861-372.741-460.252l-3.091-0.553zM808.251 775.678c-81.671 96.229-202.714 156.891-337.926 156.891-89.7 0-173.164-26.698-242.88-72.58l1.667 1.030-15.114 23.040c72.328 47.703 161.052 76.099 256.408 76.099 143.661 0 272.268-64.452 358.483-166.017l0.56-0.676zM249.94 74.057c-149.842 80.82-249.947 236.655-249.947 415.87 0 50.743 8.025 99.611 22.876 145.405l-0.934-3.333 26.358-8.387c-13.107-39.986-20.666-86.004-20.666-133.788 0-168.724 94.242-315.436 232.959-390.368l2.35-1.161z" />
<glyph unicode="&#xe932;" glyph-name="gverment" horiz-adv-x="1023" d="M1022.942-64h-1022.942v816.413h1022.942zM26.455-37.545h970.031v763.238h-970.031zM824.879 738.921h26.455v-789.693h-26.455v789.693zM171.96 738.921h26.455v-789.693h-26.455v789.693zM473.287 739.097h-26.455v220.903h232.807v-146.827h-206.352zM473.287 839.628h179.897v93.917h-179.897zM194.976 48.435h652.919v-26.455h-652.919v26.455zM194.976 134.415h652.919v-26.455h-652.919v26.455zM194.976 220.395h652.919v-26.455h-652.919v26.455zM628.227 207.168h-26.455v226.987h-90.125v26.455h116.58v-253.443zM421.523 207.168h-26.455v253.443h116.58v-26.455h-90.125v-226.987zM248.152 679.837h26.455v-84.657h-26.455v84.657zM348.329 679.837h26.455v-84.657h-26.455v84.657zM448.507 679.837h26.455v-84.657h-26.455v84.657zM548.685 679.837h26.455v-84.657h-26.455v84.657zM648.863 679.837h26.455v-84.657h-26.455v84.657zM749.040 679.837h26.455v-84.657h-26.455v84.657z" />
<glyph unicode="&#xe933;" glyph-name="home2" horiz-adv-x="1004" d="M1004.095-64h-396.895v354.402h-240.508v25.963h266.472v-354.402h344.968v671.762l-476.084 295.724-476.084-295.724v-671.762h341.074v-25.963h-367.037v712.178l502.047 311.822 502.047-311.822v-712.178z" />
<glyph unicode="&#xe934;" glyph-name="hotel" horiz-adv-x="935" d="M0-64l0.898 1022.923 933.766 1.077-0.898-1023.551zM27.833 932.077l-0.898-968.692 879.895 0.718 1.077 969.68zM447.669 494.105h-26.936v144.285h-146.619v26.936h173.555v-171.22zM657.587 494.105h-26.936v144.285h-141.232v26.936h168.168v-171.22zM864.901 494.105h-26.936v144.285h-141.322v26.936h168.257v-171.22zM447.669 283.558h-26.936v144.554h-144.105v26.936h171.041v-171.49zM237.572 494.105h-26.936v144.285h-146.529v26.936h173.465v-171.22zM237.572 283.558h-26.936v144.554h-144.015v26.936h170.951v-171.49zM237.572 73.102h-26.936v144.464h-144.015v26.936h170.951v-171.4zM657.676 17.166h-26.936v200.401h-354.113v26.936h381.048v-227.336zM864.901 73.461h-26.936v144.105h-144.105v26.936h171.041v-171.041zM657.587 283.558h-26.936v144.554h-143.926v26.936h170.861v-171.49zM864.901 283.558h-26.936v144.554h-144.015v26.936h170.951v-171.49zM61.144 32.788h847.033v-26.936h-847.033v26.936zM141.95 738.59v48.125h-47.676v-48.125h-30.437v119.594h30.437v-46.958h47.676v46.958h30.347v-119.594zM373.057 798.387c0-38.159-22.805-61.862-58.989-61.862s-59.168 23.703-59.168 61.862 22.895 61.952 59.079 61.952 59.079-23.883 59.079-61.952zM285.966 798.387c0-22.716 11.044-37.171 28.103-37.171s28.013 14.455 28.013 37.171-11.044 37.171-27.833 37.171-28.282-14.455-28.282-37.171zM477.208 738.59v95.083h-33.131v24.511h96.788v-24.511h-33.221v-95.083zM703.377 738.59h-81.974v119.594h81.974v-24.511h-51.537v-23.793h48.484v-22.357h-48.484v-24.332h51.537zM868.402 738.59h-79.909v119.594h30.437v-95.083h49.472z" />
<glyph unicode="&#xe935;" glyph-name="infrastructure" horiz-adv-x="1446" d="M1445.687-64h-1445.687l3.747 1024h1441.94zM28.823-35.177h1388.040v966.353h-1384.389zM535.059 43.319h-273.246v273.534h273.246zM290.54 72.143h215.695v215.887h-215.599zM1183.97 43.319h-273.246v273.534h273.342zM939.451 72.143h215.695v215.887h-215.599zM859.514 43.319h-273.438v273.534h273.438zM614.9 72.143h215.791v215.887h-215.791zM859.514 579.147h-273.438v273.534h273.438zM614.9 607.97h215.791v215.887h-215.791zM412.847 302.442h-28.823v123.941h677.735v-115.198h-28.823v86.374h-620.088v-95.117zM708.48 521.404h28.823v-218.962h-28.823v218.962z" />
<glyph unicode="&#xe936;" glyph-name="interview" horiz-adv-x="624" d="M105.311-37.54h413.745v-26.46h-413.745v26.46zM298.997 116.81h26.46v-167.58h-26.46v167.58zM172.431 699.546h346.625v-26.46h-346.625v26.46zM172.431 482.574h346.625v-26.46h-346.625v26.46zM340.363 195.748h-56.271c-105.973 0.1-191.86 85.956-192.011 191.908v380.421c0.151 105.967 86.038 191.823 192.002 191.923h56.281c105.973-0.1 191.86-85.956 192.011-191.908v-380.421c-0.151-105.967-86.038-191.823-192.002-191.923h-0.010zM284.092 933.54c-91.38-0.050-165.451-74.090-165.551-165.453v-380.416c0.1-91.373 74.171-165.413 165.546-165.463h56.276c91.38 0.050 165.451 74.090 165.551 165.453v380.416c-0.1 91.373-74.171 165.413-165.546 165.463h-0.005zM340.363 103.58h-56.271c-156.839 0.151-283.941 127.253-284.092 284.077v10.599h26.46v-10.672c0.201-142.187 115.437-257.393 257.617-257.543h56.286c142.226 0.151 257.481 115.406 257.632 257.618v10.598h26.46v-10.672c-0.201-156.801-127.284-283.853-284.078-284.003h-0.014z" />
<glyph unicode="&#xe937;" glyph-name="joinus" horiz-adv-x="906" d="M801.716 16.655l-18.626 18.626 85.224 85.224-85.224 85.224 18.626 18.626 103.85-103.85-103.85-103.85zM98.842 339.274h513.977v-26.358h-513.977v26.358zM98.842 442.069h513.977v-26.358h-513.977v26.358zM561.421 133.683h239.856v-26.358h-239.856v26.358zM98.842 236.479h513.977v-26.358h-513.977v26.358zM492.891 133.683h119.928v-26.358h-119.928v26.358zM685.302 960h26.358v-788.098h-26.358v788.098zM711.66-64h-711.66v769.999l247.5 249.784h450.982v-26.358h-439.911l-232.212-234.233v-732.834h658.945v106.749h26.358v-133.107zM266.389 689.833h-253.21v26.358h226.853l-0.176 123.882h26.358l0.176-150.239z" />
<glyph unicode="&#xe938;" glyph-name="learn" horiz-adv-x="714" d="M615.194 761.55h-550.367v26.46h550.367c40.187 0 72.765 32.578 72.765 72.765s-32.578 72.765-72.765 72.765v0h-537.137v-72.765h-26.46v99.225h563.597c54.8 0 99.225-44.424 99.225-99.225s-44.424-99.225-99.225-99.225v0zM714.419-64h-714.419v852.010h64.827v-26.46h-38.367v-799.090h661.499v898.315h26.46v-924.775zM460.491 172.64h-206.829v68.531c-49.582 33.344-81.769 89.237-81.769 152.648 0 0.598 0.003 1.196 0.009 1.793l-0.001-0.091c0 0.066 0 0.145 0 0.223 0 102.294 82.926 185.22 185.22 185.22s185.22-82.926 185.22-185.22c0-63.736-32.193-119.953-81.204-153.277l-0.645-0.414zM280.123 199.1h153.909v57.594l6.262 3.881c44.728 28.426 73.979 77.716 73.979 133.837 0 87.291-70.763 158.054-158.054 158.054s-158.054-70.763-158.054-158.054c0-56.65 29.804-106.339 74.587-134.243l0.669-0.388 6.439-3.881zM396.811 39.106h-79.203l-63.592 59.182v118.011h26.46v-106.545l47.54-44.188h58.388l47.804 44.276v106.457h26.46v-118.011l-63.857-59.182zM343.979 699.458h26.46v-68.796h-26.46v68.796zM480.273 595.019l40.437 55.657 21.407-15.553-40.437-55.657-21.407 15.553zM569.614 486.022l65.425 21.271 8.181-25.163-65.425-21.271-8.181 25.163zM172.273 635.12l21.407 15.553 40.437-55.657-21.407-15.553-40.437 55.657zM71.282 482.085l8.177 25.165 65.429-21.259-8.177-25.165-65.429 21.259zM280.123 130.392h167.227v-26.46h-167.227v26.46z" />
<glyph unicode="&#xe939;" glyph-name="legal-Department" horiz-adv-x="1203" d="M1187.148-64h-1171.785v16.228c0.352 87.391 70.518 158.277 157.596 159.792l0.142 0.002 327.485 4.111v266.575l84.387 57.231v503.832h32.456v-503.724l84.387-57.231v-266.684h321.21c90.617-0.062 164.060-73.504 164.121-164.115v-0.006zM48.901-31.544h1104.708c-8.499 65.255-63.703 115.144-130.575 115.22h-353.567v281.289l-68.158 46.304-68.158-46.304v-281.289l-360.050-4.111c-63.615-1.371-115.71-48.951-124.125-110.444l-0.075-0.665zM1088.805 237.087h-173.101c-62.662 0.101-113.42 50.921-113.42 113.597 0 12.17 1.914 23.892 5.456 34.883l-0.224-0.804 172.344 542.78h-378.658v32.456h412.737l183.162-575.236c3.319-10.187 5.232-21.91 5.232-34.079 0-62.676-50.758-113.497-113.411-113.597h-0.010zM1002.254 890.327l-164.338-515.408c-2.349-7.245-3.703-15.581-3.703-24.234 0-44.813 36.328-81.141 81.141-81.141 0.009 0 0.018 0 0.027 0h173.099c0.018 0 0.038 0 0.059 0 44.813 0 81.141 36.328 81.141 81.141 0 8.693-1.367 17.066-3.897 24.917l0.16-0.574zM911.701 396.124h269.929v-32.456h-269.929v32.456zM287.131 237.087h-173.101c-62.662 0.101-113.42 50.921-113.42 113.597 0 12.17 1.914 23.892 5.456 34.883l-0.224-0.804 182.621 575.236h412.737v-32.456h-378.658l173.101-542.78c3.319-10.187 5.232-21.91 5.232-34.079 0-62.676-50.758-113.497-113.411-113.597h-0.010zM200.581 890.327l-164.338-515.408c-2.349-7.245-3.703-15.581-3.703-24.234 0-44.813 36.328-81.141 81.141-81.141 0.009 0 0.018 0 0.027 0h173.099c0.018 0 0.038 0 0.059 0 44.813 0 81.141 36.328 81.141 81.141 0 8.693-1.367 17.066-3.897 24.917l0.16-0.574zM105.159 396.124h269.929v-32.456h-269.929v32.456z" />
<glyph unicode="&#xe93a;" glyph-name="logestic" horiz-adv-x="671" d="M97.115 334.944h473.015v-25.99h-473.015v25.99zM97.115 233.584h473.015v-25.99h-473.015v25.99zM299.836 132.223h270.294v-25.99h-270.294v25.99zM266.049 421.837l-132.548 132.548 18.366 18.366 114.182-114.182 213.030 213.030 18.366-18.366-231.396-231.396zM667.593-64l-667.593 2.512v903.234h130.902v-25.99h-104.912v-851.341l615.613-2.339v866.675h25.99v-892.751zM485.664 841.746h185.827v-25.99h-185.827v25.99zM498.659 762.217h-330.071v130.209h101.36v67.574h127.35v-67.574h101.36zM194.577 788.207h278.091v77.97h-101.36v67.834h-75.371v-67.574h-101.36z" />
<glyph unicode="&#xe93b;" glyph-name="med-co" horiz-adv-x="913" d="M456.653 307.81c-77.177 0-139.741 62.564-139.741 139.741s62.564 139.741 139.741 139.741c77.177 0 139.741-62.564 139.741-139.741v0c-0.339-77.040-62.701-139.402-139.708-139.741h-0.032zM456.653 558.345c-60.639 0-109.796-49.157-109.796-109.796s49.157-109.796 109.796-109.796c60.639 0 109.796 49.157 109.796 109.796v0c-0.394 60.46-49.329 109.359-109.764 109.696h-0.032zM456.653 763.065c-54.41 0-98.517 44.108-98.517 98.517s44.108 98.517 98.517 98.517c54.41 0 98.517-44.108 98.517-98.517v0c-0.057-54.387-44.131-98.46-98.512-98.517h-0.005zM456.653 930.056c-37.872 0-68.573-30.701-68.573-68.573s30.701-68.573 68.573-68.573c37.872 0 68.573 30.701 68.573 68.573v0c0 37.872-30.701 68.573-68.573 68.573v0zM98.517 556.249c-54.41 0-98.517 44.108-98.517 98.517s44.108 98.517 98.517 98.517c54.41 0 98.517-44.108 98.517-98.517v0c-0.057-54.387-44.131-98.46-98.512-98.517h-0.005zM98.517 723.239c-37.872 0-68.573-30.701-68.573-68.573s30.701-68.573 68.573-68.573c37.872 0 68.573 30.701 68.573 68.573v0c0 0.030 0 0.065 0 0.1 0 37.872-30.701 68.573-68.573 68.573 0 0 0 0 0 0v0zM98.517 142.716c-0.030 0-0.065 0-0.1 0-54.41 0-98.517 44.108-98.517 98.517s44.108 98.517 98.517 98.517c54.374 0 98.46-44.051 98.517-98.412v-0.005c0 0 0 0 0 0 0-54.394-44.039-98.503-98.406-98.617h-0.011zM98.517 309.707c-0.030 0-0.065 0-0.1 0-37.872 0-68.573-30.701-68.573-68.573s30.701-68.573 68.573-68.573c37.872 0 68.573 30.701 68.573 68.573 0 0.070 0 0.14 0 0.21v-0.011c-0.113 37.751-30.714 68.317-68.467 68.373h-0.005zM456.653-64c-54.41 0-98.517 44.108-98.517 98.517s44.108 98.517 98.517 98.517c54.41 0 98.517-44.108 98.517-98.517v0c-0.057-54.387-44.131-98.46-98.512-98.517h-0.005zM456.653 102.99c-37.872 0-68.573-30.701-68.573-68.573s30.701-68.573 68.573-68.573c37.872 0 68.573 30.701 68.573 68.573v0c0 37.872-30.701 68.573-68.573 68.573v0zM814.688 142.716c-54.409 0-98.517 44.108-98.517 98.517s44.108 98.517 98.517 98.517c54.374 0 98.46-44.051 98.517-98.412v-0.006c0-54.43-44.095-98.56-98.512-98.617h-0.005zM814.688 309.707c-37.872 0-68.572-30.701-68.572-68.573s30.701-68.573 68.573-68.573c37.872 0 68.573 30.701 68.573 68.573 0 0.070 0 0.14 0 0.21v-0.011c-0.114 37.786-30.771 68.373-68.572 68.373 0 0 0 0 0 0v0zM814.688 556.249c-54.41 0-98.517 44.108-98.517 98.517s44.108 98.517 98.517 98.517c54.41 0 98.517-44.108 98.517-98.517v0c-0.057-54.387-44.131-98.46-98.512-98.517h-0.005zM814.688 723.239c-37.872 0-68.573-30.701-68.573-68.573s30.701-68.573 68.573-68.573c37.872 0 68.573 30.701 68.573 68.573v0c0 0.030 0 0.065 0 0.1 0 37.872-30.701 68.573-68.573 68.573 0 0 0 0 0 0v0zM557.521 523.566l178.071 102.809 14.972-25.933-178.071-102.809-14.972 25.933zM441.68 322.782h29.944v-147.227h-29.944v147.227zM557.58 372.396l14.972 25.933 127.502-73.613-14.972-25.933-127.502 73.613zM162.518 295.452l178.071 102.809 14.972-25.933-178.071-102.809-14.972 25.933zM441.68 778.836h29.944v-147.227h-29.944v147.227zM162.526 600.45l14.972 25.933 127.502-73.613-14.972-25.933-127.502 73.613z" />
<glyph unicode="&#xe93c;" glyph-name="message" horiz-adv-x="1080" d="M403.030-64l-16.099 22.799 340.496 239.064h325.048v734.22h-1024.558v-734.22h367.11v-27.917h-395.027v790.055h1080.393v-790.055h-344.125l-333.237-233.945z" />
<glyph unicode="&#xe93d;" glyph-name="new-item" horiz-adv-x="1197" d="M1196.883-64h-1196.883v915.445h279.891l142.265-120.719h116.905v-30.927h-128.348l-142.162 120.719h-237.624v-853.591h1135.029v753.078h-125.255v30.927h156.182v-814.932zM839.674 510.937c-119.379 0-216.49 100.72-216.49 224.532s97.111 224.532 216.49 224.532 216.49-100.72 216.49-224.532-97.421-224.532-216.49-224.532zM839.674 929.073c-102.369 0-185.563-86.802-185.563-193.604s83.194-193.604 185.563-193.604 185.563 86.802 185.563 193.604-83.194 193.604-185.563 193.604zM698.955 750.932h281.438v-30.927h-281.438v30.927zM824.21 876.187h30.927v-281.438h-30.927v281.438z" />
<glyph unicode="&#xe93e;" glyph-name="news" horiz-adv-x="1245" d="M1088.395 520.847h-798.617v304.268h798.617zM324.276 555.345h729.622v235.273h-729.622zM284.029 218.189h382.232v-34.497h-382.232v34.497zM284.029 330.651h382.232v-34.497h-382.232v34.497zM1245.359 71.115h-1113.923v888.885h1113.923zM165.703 105.613h1045.158v819.89h-1045.158zM284.029 442.998h382.232v-34.497h-382.232v34.497zM1110.704-64h-1110.704v894.060h34.497v-859.562h1041.709v117.866h34.497v-152.364zM1058.957 413.445v-200.89h-268.275v200.89h268.275zM1093.455 447.943h-337.27v-269.885h337.27v269.885z" />
<glyph unicode="&#xe93f;" glyph-name="news-register" horiz-adv-x="1529" d="M680.651 219.95h337.184v-35.568h-337.184v35.568zM680.651 331.871h337.184v-35.568h-337.184v35.568zM1529.42 71.395h-980.133v35.568h944.565v817.469h-1042.377v-432.861h-35.568v468.429h1113.513v-888.605zM680.651 443.791h337.184v-35.568h-337.184v35.568zM320.467 606.336h-35.568v241.15h148.792v-35.568h-113.224v-205.582zM1363.436 412.61v-198.706h-265.099v198.706h265.099zM1399.004 448.178h-336.235v-269.842h336.235v269.842zM1394.973-63.526h-1092.29v35.568h1056.722v117.137h35.568v-152.705zM302.564 201.218c-0.005 0-0.010 0-0.015 0-49.24 0-89.157 39.917-89.157 89.157 0 0.584 0.006 1.166 0.017 1.747l-0.001-0.087v44.223c-0.015 0.565-0.024 1.23-0.024 1.898 0 40.808 32.987 73.911 73.75 74.099h30.488c40.73-0.255 73.65-33.332 73.65-74.098 0-0.668-0.009-1.333-0.026-1.996l0.002 0.098v-44.223c0.008-0.459 0.013-1.001 0.013-1.543 0-49.102-39.64-88.945-88.665-89.273h-0.031zM287.389 376.686c-21.25-0.041-38.46-17.277-38.46-38.532 0-0.667 0.017-1.331 0.050-1.989l-0.004 0.092v-44.223c-0.076-1.064-0.119-2.307-0.119-3.559 0-29.531 23.94-53.47 53.47-53.47s53.47 23.94 53.47 53.47c0 1.252-0.043 2.494-0.128 3.725l0.009-0.166v44.223c0.030 0.567 0.047 1.23 0.047 1.897 0 21.214-17.143 38.423-38.331 38.531h-0.010zM494.394 13.064h-35.568v57.146c-7.232 26.557-26.794 56.909-78.249 59.28l-77.894-63.192-77.419 63.074c-51.455-2.253-71.136-32.722-78.249-59.28v-57.146h-35.568v63.785c14.109 56.197 57.62 88.92 119.39 88.92h6.284l65.445-53.115 64.971 53.115h6.284c61.77 0 105.281-32.13 119.39-88.327v-4.387zM302.683-64c-0.035 0-0.077 0-0.119 0-167.167 0-302.683 135.516-302.683 302.683s135.516 302.683 302.683 302.683c167.167 0 302.683-135.516 302.683-302.683v0c-0.202-167.044-135.53-302.413-302.539-302.683h-0.026zM302.683 505.679c-0.035 0-0.077 0-0.119 0-147.524 0-267.115-119.591-267.115-267.115s119.591-267.115 267.115-267.115c147.524 0 267.115 119.591 267.115 267.115 0 0.042 0 0.084 0 0.125v-0.007c-0.202 147.377-119.62 266.794-266.977 266.996h-0.019zM1395.092 543.5h-847.82v304.936h847.939zM582.721 579.068h776.803v233.8h-776.684z" />
<glyph unicode="&#xe940;" glyph-name="note" horiz-adv-x="715" d="M116.454 413.284h481.696v-26.467h-481.696v26.467zM116.454 310.064h481.696v-26.467h-481.696v26.467zM116.454 206.843h481.696v-26.467h-481.696v26.467zM116.454 516.505h481.696v-26.467h-481.696v26.467zM714.603-64h-714.603v773.183l248.523 250.817h466.080zM26.467-37.533h661.67v971.066h-428.586l-233.084-235.202zM267.491 692.95h-254.258v26.467h227.791l-0.176 124.394h26.467l0.176-150.861z" />
<glyph unicode="&#xe941;" glyph-name="onlinechats" horiz-adv-x="1112" d="M555.779-64c-211.092 0-376.487 170.51-376.487 387.911v226.182c0 173.921 131.208 310.158 298.393 310.158h155.846c167.782 0 299.246-136.408 299.246-310.158v-226.182c0-217.486-165.48-387.911-376.998-387.911zM477.941 834.675c-153.459 0-272.817-124.984-272.817-284.582v-226.182c0-203.163 154.141-362.335 350.91-362.335s351.422 159.171 351.422 362.335v226.182c0 159.598-120.21 284.582-273.669 284.582zM192.080 260.908h-110.235c-45.063 0.048-81.603 36.468-81.845 81.481v132.68c0.049 45.182 36.663 81.796 81.84 81.845h110.24v-25.577h-110.235c-31.057-0.048-56.22-25.212-56.268-56.264v-132.662c0.241-30.91 25.331-55.88 56.264-55.927h110.24zM1030.224 260.908h-110.235v25.577h110.235c31.057 0.048 56.22 25.212 56.268 56.264v132.321c-0.048 31.057-25.212 56.22-56.264 56.268h-110.24v25.577h110.235c45.182-0.049 81.796-36.663 81.845-81.84v-132.662c-0.242-45.036-36.782-81.456-81.84-81.504h-0.005zM682.041 63.883h-144.934c-31.476 0-56.993 25.517-56.993 56.993s25.517 56.993 56.993 56.993v0h144.934zM537.108 152.292c-17.351 0-31.417-14.066-31.417-31.417s14.066-31.417 31.417-31.417v0h119.357v62.833zM669.338 133.707h253.719v-25.577h-253.719v25.577zM923.058 108.13v25.577c41.745 0.049 75.573 33.876 75.621 75.617v0.005h25.577c-0.049-55.871-45.327-101.149-101.193-101.198h-0.005zM1032.526 544.125h-25.577v5.968c0 215.525-164.031 384.33-373.418 384.33h-155.591c-209.046 0-372.821-168.805-372.821-384.33v-5.968h-25.577v5.968c0 229.848 174.944 409.907 398.397 409.907h155.591c223.71 0 398.994-180.059 398.994-409.907z" />
</font>
</defs>
</svg>
